<?xml version="1.0" encoding="utf-8"?>
<!-- Generator: Adobe Illustrator 19.0.0, SVG Export Plug-In . SVG Version: 6.00 Build 0)  -->
<svg version="1.1" id="Warstwa_1" xmlns="http://www.w3.org/2000/svg" xmlns:xlink="http://www.w3.org/1999/xlink" x="0px" y="0px"
	 viewBox="0 0 1000 1000" style="enable-background:new 0 0 1000 1000;" xml:space="preserve">
<style type="text/css">
	.st0{fill:#57382D;}
	.st1{fill:none;stroke:#57382D;stroke-width:9;stroke-miterlimit:10;}
</style>
<g id="XMLID_294_">
	<g id="XMLID_304_">
		<g id="XMLID_317_">
			<g id="XMLID_321_">
				<g id="XMLID_322_">
					<path id="XMLID_323_" class="st0" d="M450,244.9c0,4-3.9,7.3-8.8,7.3c-4.9,0-8.8-3.3-8.8-7.3c0-4.1,3.9-7.3,8.8-7.3
						C446,237.6,450,240.9,450,244.9z"/>
				</g>
			</g>
			<g id="XMLID_318_">
				<g id="XMLID_319_">
					<path id="XMLID_320_" class="st0" d="M494,303.6h-4.4c0-31-49.2-56.8-49.7-57.1l2.3-3.1C444.4,244.5,494,270.5,494,303.6z"/>
				</g>
			</g>
		</g>
		<g id="XMLID_310_">
			<g id="XMLID_314_">
				<g id="XMLID_315_">
					<path id="XMLID_316_" class="st0" d="M544.7,240.7c0,4.3,3.9,7.9,8.8,7.9c4.9,0,8.8-3.5,8.8-7.9c0-4.3-4-7.9-8.8-7.9
						C548.6,232.8,544.7,236.3,544.7,240.7z"/>
				</g>
			</g>
			<g id="XMLID_311_">
				<g id="XMLID_312_">
					<path id="XMLID_313_" class="st0" d="M505,303.6h-4.4c0-35.4,49.6-63.4,51.7-64.5l2.3,3.3C554.1,242.6,505,270.4,505,303.6z"/>
				</g>
			</g>
		</g>
		<g id="XMLID_305_">
			<g id="XMLID_308_">
				<path id="XMLID_309_" class="st0" d="M542.1,330.3c5.9-7.2,7.4-15.1,7.4-18.9c0-7.1-4.4-17.2-11.2-26.6l-5.8-7
					c-8.9-9.6-20.4-17.1-31.8-17.1c-11.4,0-22.9,7.5-31.8,17.1l-5.8,7c-6.8,9.3-11.2,19.4-11.2,26.6c0,3.8,1.5,11.7,7.4,18.9
					c10.8-7.2,24.8-11.2,41.5-11.2C517.3,319.2,531.3,323.1,542.1,330.3z"/>
			</g>
			<g id="XMLID_306_">
				<path id="XMLID_307_" class="st0" d="M559.5,373c-6.1-32.5-33.4-42.7-59-42.7c-25.6,0-52.9,10.2-59,42.7
					c-1.2,20.1,4.2,45.3,6.9,54.1c11.2,28.3,32.3,50.6,52.1,50.6c19.8,0,40.9-22.4,52.1-50.6C558.2,406.5,560.8,387.4,559.5,373z"/>
			</g>
		</g>
	</g>
	<path id="XMLID_303_" class="st0" d="M571.9,513c11.6,47.1,8.2,62.8-20.3,80.1c-39.4,23.9-79.1,22.9-116.9-10.6
		c-11.7-10.4-16.7-48.2-9.5-66.3c2.1-5.4,3.3-3.8,6.4-1.1C478.6,557.7,525.3,554,571.9,513z"/>
	<path id="XMLID_302_" class="st0" d="M479.7,708c-25.9-10.2-44.1-33.9-57.7-65.3c-1.6-3.6-1.7-11.8-1.7-11.8
		c29.2,37.1,128.7,38.1,161.9-7.6c0,6.8-11.5,36-21.1,49.6c-11.6,16.5-24.9,30-41.6,35.2C501.7,713.3,489.8,711.7,479.7,708z"/>
	<path id="XMLID_301_" class="st0" d="M499.5,510.6c-19.8-0.4-38.6-5.8-55-25.3c-6.5-7.7-6.8-13.8-1.3-22.3
		c3.4-5.3,6.4-11.3,9.8-16.8c6.8-10.9,13.2-14.3,23.2-6c17.5,14.4,35.9,9.9,53.1-3.8c3.8-3,5.7-2.8,9,0.6
		c5.9,6.1,10.9,13.1,15.4,21.6c9.2,17.4,9.2,20.1-3.2,31.8C534.9,505.2,517.8,511.4,499.5,510.6z"/>
	<path id="XMLID_298_" class="st0" d="M176.7,609.2c3.1-17.9,12.2-39,24.9-58C256.7,469,325.4,402,419,364.9
		c39.4-15.6,39.9-14.3,48.7,30c18.6,93-25.4,194.4-102.6,244.2c-43.3,28-90.2,39.4-141.4,32.1C191.5,666.8,173.2,644.9,176.7,609.2z
		 M438.5,454.9c1.8-10.3,0.3-22.8-0.6-35.4c-1.5-20.6,2.5-30.9-25.8-16.9c-61.6,30.4-111.5,75-155.1,127.1
		c-18.9,22.5-35.1,46.9-45.2,75c-7.8,21.9-2,31.5,21.2,34.9c20.4,2.9,40.7,1.8,60-4.1C375.8,610.2,430.5,542.7,438.5,454.9z"/>
	<path id="XMLID_295_" class="st0" d="M776.3,671.3c-51.2,7.2-98.1-4.1-141.4-32.1c-77.2-49.9-121.2-151.3-102.6-244.2
		c8.8-44.3,9.3-45.6,48.7-30c93.6,37.1,162.3,104,217.4,186.3c12.7,19,21.9,40.1,24.9,58C826.8,644.9,808.5,666.8,776.3,671.3z
		 M707,635.5c19.4,5.9,39.6,7,60,4.1c23.1-3.3,29-13,21.2-34.9c-10-28.1-26.3-52.5-45.2-75c-43.6-52.1-93.5-96.7-155.1-127.1
		c-28.3-13.9-24.3-3.7-25.8,16.9c-0.9,12.5-2.5,25.1-0.6,35.4C569.5,542.7,624.2,610.2,707,635.5z"/>
</g>
<polygon id="XMLID_293_" class="st1" points="99.8,268.9 500,37.9 900.2,268.9 900.2,731.1 500,962.1 99.8,731.1 "/>
</svg>
