<?xml version="1.0" encoding="utf-8"?>
<!-- Generator: Adobe Illustrator 19.0.0, SVG Export Plug-In . SVG Version: 6.00 Build 0)  -->
<svg version="1.1" id="Warstwa_1" xmlns="http://www.w3.org/2000/svg" xmlns:xlink="http://www.w3.org/1999/xlink" x="0px" y="0px"
	 viewBox="198.4 -80.1 2381.1 1000" style="enable-background:new 198.4 -80.1 2381.1 1000;" xml:space="preserve">
<style type="text/css">
	.st0{fill:#57382D;}
	.st1{fill:none;stroke:#57382D;stroke-width:9;stroke-miterlimit:10;}
</style>
<image style="display:none;overflow:visible;opacity:0.44;" width="517" height="116" xlink:href="C:\Users\mtx\Desktop\logo.jpg"  transform="matrix(12.3791 0 0 12.3791 -349 -320.3983)">
</image>
<g>
	<g>
		<g id="XMLID_294_">
			<g id="XMLID_304_">
				<g id="XMLID_317_">
					<g id="XMLID_321_">
						<g id="XMLID_322_">
							<path id="XMLID_323_" class="st0" d="M627.4,164.8c0,4-3.9,7.3-8.8,7.3c-4.9,0-8.8-3.3-8.8-7.3c0-4.1,3.9-7.3,8.8-7.3
								C623.4,157.5,627.4,160.8,627.4,164.8z"/>
						</g>
					</g>
					<g id="XMLID_318_">
						<g id="XMLID_319_">
							<path id="XMLID_320_" class="st0" d="M671.4,223.5H667c0-31-49.2-56.8-49.7-57.1l2.3-3.1
								C621.8,164.4,671.4,190.4,671.4,223.5z"/>
						</g>
					</g>
				</g>
				<g id="XMLID_310_">
					<g id="XMLID_314_">
						<g id="XMLID_315_">
							<path id="XMLID_316_" class="st0" d="M722.1,160.6c0,4.3,3.9,7.9,8.8,7.9c4.9,0,8.8-3.5,8.8-7.9c0-4.3-4-7.9-8.8-7.9
								C726,152.7,722.1,156.2,722.1,160.6z"/>
						</g>
					</g>
					<g id="XMLID_311_">
						<g id="XMLID_312_">
							<path id="XMLID_313_" class="st0" d="M682.4,223.5H678c0-35.4,49.6-63.4,51.7-64.5l2.3,3.3
								C731.5,162.5,682.4,190.3,682.4,223.5z"/>
						</g>
					</g>
				</g>
				<g id="XMLID_305_">
					<g id="XMLID_308_">
						<path id="XMLID_309_" class="st0" d="M719.5,250.2c5.9-7.2,7.4-15.1,7.4-18.9c0-7.1-4.4-17.2-11.2-26.6l-5.8-7
							c-8.9-9.6-20.4-17.1-31.8-17.1s-22.9,7.5-31.8,17.1l-5.8,7c-6.8,9.3-11.2,19.4-11.2,26.6c0,3.8,1.5,11.7,7.4,18.9
							c10.8-7.2,24.8-11.2,41.5-11.2C694.7,239.1,708.7,243,719.5,250.2z"/>
					</g>
					<g id="XMLID_306_">
						<path id="XMLID_307_" class="st0" d="M736.9,292.9c-6.1-32.5-33.4-42.7-59-42.7s-52.9,10.2-59,42.7
							c-1.2,20.1,4.2,45.3,6.9,54.1c11.2,28.3,32.3,50.6,52.1,50.6s40.9-22.4,52.1-50.6C735.6,326.4,738.2,307.3,736.9,292.9z"/>
					</g>
				</g>
			</g>
			<path id="XMLID_303_" class="st0" d="M749.3,432.9c11.6,47.1,8.2,62.8-20.3,80.1c-39.4,23.9-79.1,22.9-116.9-10.6
				c-11.7-10.4-16.7-48.2-9.5-66.3c2.1-5.4,3.3-3.8,6.4-1.1C656,477.6,702.7,473.9,749.3,432.9z"/>
			<path id="XMLID_302_" class="st0" d="M657.1,627.9c-25.9-10.2-44.1-33.9-57.7-65.3c-1.6-3.6-1.7-11.8-1.7-11.8
				c29.2,37.1,128.7,38.1,161.9-7.6c0,6.8-11.5,36-21.1,49.6c-11.6,16.5-24.9,30-41.6,35.2C679.1,633.2,667.2,631.6,657.1,627.9z"/>
			<path id="XMLID_301_" class="st0" d="M676.9,430.5c-19.8-0.4-38.6-5.8-55-25.3c-6.5-7.7-6.8-13.8-1.3-22.3
				c3.4-5.3,6.4-11.3,9.8-16.8c6.8-10.9,13.2-14.3,23.2-6c17.5,14.4,35.9,9.9,53.1-3.8c3.8-3,5.7-2.8,9,0.6
				c5.9,6.1,10.9,13.1,15.4,21.6c9.2,17.4,9.2,20.1-3.2,31.8C712.3,425.1,695.2,431.3,676.9,430.5z"/>
			<path id="XMLID_298_" class="st0" d="M354.1,529.1c3.1-17.9,12.2-39,24.9-58c55.1-82.2,123.8-149.2,217.4-186.3
				c39.4-15.6,39.9-14.3,48.7,30c18.6,93-25.4,194.4-102.6,244.2c-43.3,28-90.2,39.4-141.4,32.1
				C368.9,586.7,350.6,564.8,354.1,529.1z M615.9,374.8c1.8-10.3,0.3-22.8-0.6-35.4c-1.5-20.6,2.5-30.9-25.8-16.9
				c-61.6,30.4-111.5,75-155.1,127.1c-18.9,22.5-35.1,46.9-45.2,75c-7.8,21.9-2,31.5,21.2,34.9c20.4,2.9,40.7,1.8,60-4.1
				C553.2,530.1,607.9,462.6,615.9,374.8z"/>
			<path id="XMLID_295_" class="st0" d="M953.7,591.2c-51.2,7.2-98.1-4.1-141.4-32.1c-77.2-49.9-121.2-151.3-102.6-244.2
				c8.8-44.3,9.3-45.6,48.7-30c93.6,37.1,162.3,104,217.4,186.3c12.7,19,21.9,40.1,24.9,58C1004.2,564.8,985.9,586.7,953.7,591.2z
				 M884.4,555.4c19.4,5.9,39.6,7,60,4.1c23.1-3.3,29-13,21.2-34.9c-10-28.1-26.3-52.5-45.2-75c-43.6-52.1-93.5-96.7-155.1-127.1
				c-28.3-13.9-24.3-3.7-25.8,16.9c-0.9,12.5-2.5,25.1-0.6,35.4C746.9,462.6,801.6,530.1,884.4,555.4z"/>
		</g>
		<polygon id="XMLID_293_" class="st1" points="277.2,188.8 677.4,-42.2 1077.6,188.8 1077.6,651 677.4,882 277.2,651 		"/>
	</g>
	<g>
		<path class="st0" d="M1183.2,481v-1.8h3.1c4.4,0,7.5-1,9.4-3.1c1.8-2.1,2.7-5.7,2.7-10.7V352.6c-0.1-4-0.7-6.8-1.8-8.2
			c-1-1.4-3.6-2.1-7.8-2.1h-7.8v-1.8h29.1l55.5,111.9c2,3.9,2.9,6.7,2.9,8.4h1c0-1.8,0.9-4.6,2.7-8.4l54.5-111.9h29.1v1.8h-5.9
			c-4.6,0-7.5,1-8.8,2.9c-1.3,2-2,5.6-2,11v97.9c0,11.4,3.3,20.4,9.8,27.2c6.5,6.8,15.2,10.2,26.2,10.2c6.4,0,11.8-2.1,16.2-6.3
			c4.4-4.2,6.7-9.2,6.8-15c0-5.3-1.6-9.6-4.9-13c-3.3-3.4-7.6-5.3-13.1-5.7h-17.8v-1.8h6.8c4.7,0,7.5-0.5,8.6-1.6
			c1-1,1.6-3.9,1.8-8.6v-60.4c0-3.9-2-5.9-5.9-5.9h-9.2v-1.8h11.1c4.8,0,8.9-0.8,12.3-2.3c3.4-1.6,5.1-4.2,5.3-8v-0.8h1.6v16.6v62.5
			c0,4.7,0.6,7.6,1.8,8.6c1.2,1,4.1,1.6,8.8,1.6h6.8v1.8h-24.4c3.8,1.6,6.7,4,8.8,7.2c2.1,3.3,3.2,7,3.3,11.3
			c0,7.4-2.9,13.7-8.8,18.9c-5.7,5.2-12.7,7.8-20.9,7.8c-13.9-0.1-25.1-4.9-33.6-14.3c-8.5-9.4-12.7-21.7-12.7-37.1v-80.1
			c0-4.3,0.1-7.2,0.2-8.6h-1.4c-0.3,0.8-1.4,3.5-3.3,8l-56.4,117.1l-0.6,1.4h-0.4l-0.6-1.4l-56.6-114.9c-1.7-3.8-2.5-6.5-2.5-8.2
			h-0.8c0.1,1.2,0.2,3.4,0.2,6.6v102c0,4.3,0.9,7.4,2.7,9.2c1.8,1.8,4.9,2.7,9.4,2.7h7v1.8H1183.2z M1386.1,324.7
			c2.6,0,4.7,0.8,6.3,2.2c1.6,1.5,2.3,3.6,2.3,6.3c0,2.6-0.8,4.7-2.2,6.3c-1.5,1.6-3.6,2.4-6.3,2.4c-2.6,0-4.7-0.8-6.3-2.3
			c-1.6-1.6-2.4-3.7-2.4-6.4c0-2.6,0.8-4.7,2.3-6.3S1383.4,324.7,1386.1,324.7z"/>
		<path class="st0" d="M1485.5,482.5c-19.1,0-34.6-5.4-46.3-16.3c-11.7-10.9-17.6-25.2-17.6-42.9c0-16.3,6.3-30.2,18.8-41.7
			s27.5-17.3,45.1-17.3c19.3,0,34.8,5.4,46.5,16.2c11.7,10.8,17.6,25.1,17.6,42.8c0,16.3-6.3,30.2-18.8,41.8
			C1518.3,476.7,1503.2,482.5,1485.5,482.5z M1486.1,479c13.9,0,25.2-4.8,33.7-14.3c8.5-9.5,12.8-22.1,12.8-37.7
			c0-16.3-4.7-30.2-14.1-41.8c-9.4-11.6-20.6-17.4-33.8-17.4c-13.8,0-24.9,4.8-33.4,14.3c-8.5,9.5-12.7,22.1-12.7,37.7
			c0,16.3,4.6,30.2,13.9,41.8C1461.8,473.2,1473,479,1486.1,479z"/>
		<path class="st0" d="M1565.6,423.5c0-16.3,5.8-30.2,17.4-41.8c11.6-11.6,25.6-17.4,42-17.4c10.4,0,19.3,3,26.7,9.1
			c7.4,6.1,11,13.3,11,21.8c0,9.1-3.5,16.9-10.4,23.2c-7,6.4-15.4,9.6-25.3,9.6h-3.9c0-2.3,0.8-4.3,2.5-6c1.7-1.6,3.8-2.4,6.3-2.4
			c8.2,0,14.8-2.2,19.8-6.7c5-4.5,7.5-10.4,7.5-17.7c0-7.5-3.4-14-10.1-19.3c-6.7-5.3-14.7-8-24.1-8c-12.8,0-23,5.4-30.8,16.3
			c-7.7,10.9-11.6,25.2-11.6,42.9c0,14.3,4,26.6,12,36.7s17.7,15.2,29,15.2c7.8,0,15.4-2.3,22.9-6.8c7.4-4.6,13.4-10.5,18.1-18
			c4.6-7.4,6.9-15,6.9-22.9v-93.2c0-3.9-2-5.9-5.9-5.9h-9.2v-1.8h11.1c4.8,0,9-0.8,12.4-2.4c3.4-1.6,5.2-4.3,5.2-7.9v-0.8h1.6V336
			v131.1c0,4,0.4,6.7,1.1,8c0.7,1.3,2.5,2,5.4,2l3.9-0.2l3.3-0.2l0.2,1.8c-7.9,0.8-15.2,2.2-21.7,4.3v-1.6c0-3.9-0.7-9.8-2.1-17.6
			l-3.3-20.9c-3,10.8-9.2,20.2-18.8,28c-9.5,7.9-19.6,11.8-30.3,11.8c-17.6,0-31.8-5.4-42.6-16.2
			C1571,455.5,1565.6,441.3,1565.6,423.5z"/>
		<path class="st0" d="M1738.7,507.5c11.1,0,18.4-5.3,22.1-15.8l3.3-9.8c0.7-1.6,1-3.3,1-5.1c0-2-0.5-3.9-1.4-5.9l-43-91.2
			c-2.3-4.9-4.2-8.2-5.6-9.8s-3.4-2.3-6.2-2.3h-2.9v-1.8h37.7v1.8h-14.1v0.4c1.8,0.7,4,3.7,6.6,9.2l33.8,71.7
			c0.9,2.1,1.4,4.8,1.4,8.2h1.4l27.9-77.3c0.9-2.6,1.4-4.6,1.4-6.1c0-4-3.2-6.1-9.6-6.1h-9v-1.8h33.6v1.6h-1.2c-3,0-5.2,0.8-6.6,2.5
			c-1.4,1.7-3,5-4.7,9.8l-40.2,111.9c-3.1,7.8-7,13.8-11.6,17.9c-4.6,4.1-9.5,6.2-14.7,6.2c-6.1,0-11.3-2.2-15.6-6.7
			s-6.4-9.9-6.4-16.3c0-6.4,2.2-11.5,6.6-15.3c4.4-3.8,10.2-5.8,17.4-5.8h3.9c0,2.5-0.8,4.5-2.4,6.1c-1.6,1.6-3.7,2.3-6.3,2.3
			c-4.7,0-8.5,1.2-11.3,3.5c-2.9,2.3-4.3,5.4-4.3,9.2c0,4,1.9,7.5,5.6,10.4S1733.3,507.5,1738.7,507.5z"/>
		<path class="st0" d="M1872.5,340.5h28.1v2.7c0,2.5,0.5,5.3,1.4,8.4l40.4,108.8c0.8,2.3,1.2,4.7,1.2,7h2c0-1.7,0.5-4,1.4-7l27.9-93
			l-3.9-13.1c-1.4-4.8-2.9-8-4.3-9.7c-1.4-1.6-3.8-2.4-7.2-2.4h-4.5v-1.8h43.6v1.8H1980v0.4c2.6,0.9,4.6,3.9,6,9l32.7,108.8
			c0.8,3.1,1.2,5.5,1.2,7h2.7c0-2,0.6-4.5,1.8-7.6l38.5-105.7c0.9-2.3,1.4-4.2,1.4-5.7c0-4.2-3.3-6.3-9.8-6.3h-7.4v-1.8h33.2v1.8
			h-2.9c-2.9,0-5,0.9-6.3,2.6s-2.8,4.9-4.4,9.5l-46.3,127.3l-10.8,1l-32.7-109l-32.5,108.2l-10.9,0.8l-46.5-128.3
			c-1.6-5.1-3-8.3-4.3-9.8c-1.3-1.5-3.6-2.2-7-2.2h-2.9V340.5z"/>
		<path class="st0" d="M2100.4,458v-78.8c0-3.9-2-5.9-5.9-5.9h-8.8v-1.8h10.7c4.8,0,9-0.8,12.4-2.4c3.4-1.6,5.2-4.3,5.2-7.9v-0.8
			h1.6v16.6v80.8c-1.2,2.7-1.8,5.4-1.8,7.8c0,3.3,1.2,6.1,3.7,8.5c2.5,2.4,5.4,3.6,8.8,3.6c3.4,0,6.1-1,8.2-3.1
			c2.1-2.1,3.1-4.9,3.1-8.4c0-2-0.3-3.9-0.8-5.7l1.6-0.8c0.7,2.1,1,4.2,1,6.5c0,5.1-1.7,9.2-5,12.2s-7.7,4.6-13,4.6
			c-5.7,0-10.7-2.4-14.8-7.3C2102.5,470.9,2100.4,465,2100.4,458z M2107.9,324.7c2.6,0,4.6,0.8,6.2,2.2c1.5,1.5,2.3,3.6,2.3,6.3
			c0,2.6-0.7,4.7-2.2,6.3c-1.5,1.6-3.6,2.4-6.3,2.4c-2.6,0-4.7-0.8-6.3-2.3c-1.6-1.6-2.4-3.7-2.4-6.4c0-2.6,0.8-4.7,2.3-6.3
			S2105.2,324.7,2107.9,324.7z"/>
		<path class="st0" d="M2155.1,484.5c0,5.2,5.1,9.5,15.2,13c10.2,3.4,23,5.2,38.5,5.2c13.4,0,25.1-1.9,35-5.6
			c9.9-3.7,14.8-8.2,14.8-13.6c0-2.1-0.7-3.8-2-5.2c-1.3-1.4-3.3-2.3-5.9-2.9c-2.6-0.6-5.3-1-8-1.3c-2.9-0.3-6.3-0.4-10.2-0.4
			c-3.8,0-6.8,0-9.2-0.1c-2.3-0.1-5.3-0.3-9-0.7c-3.6-0.4-6.6-0.9-8.9-1.6c-2.3-0.6-4.8-1.7-7.5-3s-4.9-3-6.4-5s-2.9-4.4-3.9-7.3
			c-1-2.9-1.6-6.3-1.6-10.1v-2c-11.2-2.6-20-7.5-26.4-14.7c-6.4-7.2-9.6-15.9-9.6-26.2c0-10.7,5.2-19.8,15.7-27.4
			c10.5-7.6,23.1-11.4,37.8-11.4c19.3,0,34,4.7,44.1,14c-0.1-1.3-0.2-2.5-0.2-3.7c0-4.3,1-8.2,2.9-12c2-3.7,4.8-6.6,8.6-8.7l3.3-2
			c1,1.8,1.6,3.7,1.6,5.7c0,2.6-1.1,4.6-3.3,5.9c-2.6,1.6-4.7,3.7-6.3,6.4c-1.6,2.7-2.3,5.6-2.3,8.6c0,2.6,0.7,5,2,7.2
			c3.3,5.2,4.9,11,4.9,17.3c0,11.8-5.4,21.9-16.2,30.3c-10.8,8.4-23.8,12.6-39.1,12.6c-5,0-9.6-0.4-14.1-1.2v1.2
			c0,5.5,2.1,9.1,6.4,10.8s10.5,2.6,18.8,2.6h12.1c5.2,0,9.6,0.2,13.2,0.7c3.6,0.5,7.2,1.4,10.8,2.9c3.6,1.5,6.4,4,8.3,7.4
			c1.9,3.5,2.8,7.8,2.8,13c0,8.6-5.3,16.1-16,22.6c-10.7,6.4-23.1,9.7-37.3,9.7c-16.4,0-30-3-40.9-9c-10.9-6-16.3-13.4-16.3-22.3
			c0-5.9,2.3-10.8,7-14.9s10.4-6.2,17-6.2h3.9c0,2.3-0.8,4.3-2.5,6c-1.7,1.6-3.8,2.4-6.3,2.4c-4.3,0-8,1.2-11,3.7
			C2156.6,478,2155.1,481,2155.1,484.5z M2203.9,367.9c-11.6,0-20.9,3-27.9,9c-7,6-10.5,13.8-10.5,23.6c0,11.6,3.7,21.5,11.2,29.7
			c7.5,8.2,16.6,12.4,27.2,12.4c12,0,21.6-3.4,28.9-10.1c7.3-6.8,10.9-15.6,10.9-26.7c0-10.4-3.9-19.3-11.7-26.7
			C2224.2,371.6,2214.8,367.9,2203.9,367.9z"/>
		<path class="st0" d="M2343.7,482.5c-19.1,0-34.6-5.4-46.3-16.3c-11.7-10.9-17.6-25.2-17.6-42.9c0-16.3,6.3-30.2,18.8-41.7
			s27.5-17.3,45.1-17.3c19.3,0,34.8,5.4,46.5,16.2c11.7,10.8,17.6,25.1,17.6,42.8c0,16.3-6.3,30.2-18.8,41.8
			C2376.5,476.7,2361.4,482.5,2343.7,482.5z M2344.3,479c13.9,0,25.2-4.8,33.7-14.3c8.5-9.5,12.8-22.1,12.8-37.7
			c0-16.3-4.7-30.2-14.1-41.8c-9.4-11.6-20.6-17.4-33.8-17.4c-13.8,0-24.9,4.8-33.4,14.3c-8.5,9.5-12.7,22.1-12.7,37.7
			c0,16.3,4.6,30.2,13.9,41.8C2320,473.2,2331.2,479,2344.3,479z"/>
		<path class="st0" d="M2436.5,468.9v-85.9c0-1.8-0.6-3.3-1.8-4.5s-2.7-1.8-4.7-1.8c-0.3,0-0.5,0-0.8,0l-11.5,1l-0.2-1.2l15-3.2
			c4.4-0.9,8.2-2.6,11.2-5.1c3.1-2.4,4.6-5.6,4.6-9.3v-0.8h1.6v25.8c0,8.7-0.5,14.7-1.6,18v0.4h1.6c2.6-12,7-21.4,13.2-28.1
			c6.2-6.8,13.4-10.2,21.6-10.2c4,0,7.4,0.5,10.2,1.6c3.9,1.4,5.9,4.2,5.9,8.2c0,2.3-0.8,4.4-2.5,6.2c-1.7,1.8-3.7,2.6-6.1,2.6
			s-4.4-0.9-6.2-2.6s-2.6-3.8-2.6-6.1c0-1.5,0.5-3,1.4-4.4v-0.2c-9.9,0-17.9,5-23.9,15c-6.1,10-9.1,23.2-9.1,39.6v45.1
			c0,6.9,3.5,10.4,10.5,10.4h12.3v1.6h-55.3v-1.8h6.8C2433.1,479.2,2436.5,475.8,2436.5,468.9z"/>
	</g>
</g>
</svg>
