<?xml version="1.0" encoding="utf-8"?>
<!-- Generator: Adobe Illustrator 19.0.0, SVG Export Plug-In . SVG Version: 6.00 Build 0)  -->
<svg version="1.1" id="Warstwa_1" xmlns="http://www.w3.org/2000/svg" xmlns:xlink="http://www.w3.org/1999/xlink" x="0px" y="0px"
	 viewBox="0 0 350 109" style="enable-background:new 0 0 350 109;" xml:space="preserve">
<style type="text/css">
	.st0{fill:#301A09;}
</style>
<g id="XMLID_81_">
	<g id="XMLID_80_">
		<path id="XMLID_13_" class="st0" d="M57.3,10.8c0,0.7-0.8,1.3-1.6,1.3c-0.9,0-1.7-0.6-1.7-1.3c0-0.8,0.8-1.4,1.7-1.4
			C56.5,9.4,57.3,10,57.3,10.8"/>
		<path id="XMLID_12_" class="st0" d="M65.7,21.9h-0.9c0-5.9-9.3-10.8-9.4-10.8l0.5-0.6C56.3,10.7,65.7,15.6,65.7,21.9"/>
		<path id="XMLID_11_" class="st0" d="M75.2,10c0,0.8,0.8,1.5,1.6,1.5c0.9,0,1.7-0.7,1.7-1.5c0-0.8-0.8-1.5-1.7-1.5
			C76,8.5,75.2,9.2,75.2,10"/>
		<path id="XMLID_10_" class="st0" d="M67.7,21.9h-0.9c0-6.7,9.4-12,9.8-12.2l0.5,0.6C77,10.4,67.7,15.6,67.7,21.9"/>
		<path id="XMLID_9_" class="st0" d="M74.7,27c1.1-1.3,1.4-2.8,1.4-3.6c0-1.3-0.9-3.2-2.1-5L72.9,17c-1.7-1.8-3.8-3.2-6-3.2
			c-2.2,0-4.3,1.4-6,3.2l-1.1,1.3c-1.3,1.8-2.1,3.7-2.1,5c0,0.8,0.3,2.3,1.4,3.6c2-1.3,4.7-2.1,7.8-2.1C70,24.9,72.6,25.6,74.7,27"
			/>
		<g id="XMLID_18_">
			<path id="XMLID_8_" class="st0" d="M78,34.9c-1.2-6.1-6.3-8.1-11.2-8.1c-4.8,0-10,2-11.2,8.1c-0.2,3.8,0.8,8.6,1.3,10.2
				c2.1,5.4,6.1,9.6,9.8,9.6c3.8,0,7.7-4.2,9.8-9.6C77.8,41.3,78.3,37.6,78,34.9"/>
			<path id="XMLID_7_" class="st0" d="M80.4,61.4c2.2,8.9,1.6,11.9-3.8,15.2c-7.5,4.5-15,4.3-22.2-2c-2.2-2-3.1-9.1-1.8-12.6
				c0.5-1,0.6-0.7,1.3-0.2C62.7,69.9,71.5,69.2,80.4,61.4"/>
			<path id="XMLID_6_" class="st0" d="M62.9,98.4C58,96.4,54.6,92,52,86.1c-0.3-0.7-0.3-2.3-0.3-2.3c5.5,7,24.4,7.3,30.6-1.4
				c0,1.3-2.2,6.8-4,9.4c-2.2,3.1-4.8,5.7-7.9,6.6C67.1,99.4,64.8,99.1,62.9,98.4"/>
			<path id="XMLID_5_" class="st0" d="M66.7,61c-3.8-0.1-7.3-1.1-10.5-4.8C55,54.8,55,53.7,56,52.1c0.7-1,1.2-2.1,1.9-3.1
				c1.2-2.1,2.5-2.7,4.4-1.2c3.4,2.7,6.8,1.9,10.1-0.7c0.7-0.6,1.1-0.5,1.6,0.1c1.2,1.2,2.1,2.5,3,4.1c1.7,3.3,1.7,3.8-0.6,6
				C73.3,60,70.1,61.2,66.7,61"/>
		</g>
		<path id="XMLID_74_" class="st0" d="M5.6,79.6c0.6-3.4,2.3-7.3,4.8-10.9c10.4-15.6,23.4-28.2,41.1-35.2c7.4-3,7.6-2.7,9.2,5.6
			c3.5,17.6-4.8,36.8-19.4,46.3c-8.2,5.2-17.1,7.4-26.8,6C8.4,90.5,4.9,86.4,5.6,79.6 M55.1,50.4c0.4-1.9,0.1-4.3-0.1-6.6
			c-0.3-3.9,0.5-5.9-4.9-3.2c-11.6,5.7-21.1,14.1-29.3,24c-3.6,4.3-6.6,8.9-8.6,14.2c-1.5,4.1-0.3,5.9,4.1,6.6
			c3.8,0.6,7.7,0.4,11.3-0.7C43.3,79.9,53.6,67.1,55.1,50.4"/>
		<path id="XMLID_71_" class="st0" d="M119.1,91.4c-9.7,1.4-18.6-0.8-26.8-6c-14.6-9.5-22.9-28.7-19.4-46.3c1.6-8.4,1.7-8.6,9.2-5.6
			c17.7,7,30.7,19.7,41.1,35.2c2.4,3.6,4.1,7.6,4.7,10.9C128.6,86.4,125.2,90.5,119.1,91.4 M105.9,84.6c3.7,1.1,7.5,1.3,11.3,0.7
			c4.4-0.6,5.6-2.4,4-6.6c-1.9-5.3-4.9-9.9-8.5-14.2c-8.2-9.8-17.7-18.3-29.3-24c-5.4-2.7-4.6-0.7-4.9,3.2c-0.2,2.3-0.5,4.8-0.1,6.6
			C79.9,67.1,90.2,79.9,105.9,84.6"/>
	</g>
	<g id="XMLID_1_">
		<path id="XMLID_2_" class="st0" d="M156.2,62.9v-0.3h0.5c0.6,0,1.1-0.2,1.4-0.5c0.3-0.3,0.4-0.8,0.4-1.6V44.4c0-0.6-0.1-1-0.3-1.2
			c-0.2-0.2-0.5-0.3-1.1-0.3h-1.1v-0.3h4.2l8,16.2c0.3,0.6,0.4,1,0.4,1.2h0.1c0-0.3,0.1-0.7,0.4-1.2l7.9-16.2h4.2v0.3h-0.8
			c-0.7,0-1.1,0.1-1.3,0.4c-0.2,0.3-0.3,0.8-0.3,1.6v14.1c0,1.6,0.5,3,1.4,3.9c0.9,1,2.2,1.5,3.8,1.5c0.9,0,1.7-0.3,2.3-0.9
			c0.6-0.6,1-1.3,1-2.2c0-0.8-0.2-1.4-0.7-1.9c-0.5-0.5-1.1-0.8-1.9-0.8h-2.6v-0.3h1c0.7,0,1.1-0.1,1.2-0.2c0.2-0.2,0.2-0.6,0.3-1.2
			v-8.7c0-0.6-0.3-0.8-0.8-0.8h-1.3v-0.3h1.6c0.7,0,1.3-0.1,1.8-0.3c0.5-0.2,0.7-0.6,0.8-1.2v-0.1h0.2v2.4v9c0,0.7,0.1,1.1,0.3,1.2
			s0.6,0.2,1.3,0.2h1v0.3h-3.5c0.5,0.2,1,0.6,1.3,1c0.3,0.5,0.5,1,0.5,1.6c0,1.1-0.4,2-1.3,2.7c-0.8,0.8-1.8,1.1-3,1.1
			c-2,0-3.6-0.7-4.9-2.1c-1.2-1.4-1.8-3.1-1.8-5.4V46.2c0-0.6,0-1,0-1.2h-0.2c0,0.1-0.2,0.5-0.5,1.2l-8.2,16.9l-0.1,0.2h-0.1
			l-0.1-0.2l-8.2-16.6c-0.2-0.5-0.4-0.9-0.4-1.2h-0.1c0,0.2,0,0.5,0,1V61c0,0.6,0.1,1.1,0.4,1.3c0.3,0.3,0.7,0.4,1.4,0.4h1v0.3
			H156.2z M185.5,40.4c0.4,0,0.7,0.1,0.9,0.3c0.2,0.2,0.3,0.5,0.3,0.9c0,0.4-0.1,0.7-0.3,0.9c-0.2,0.2-0.5,0.4-0.9,0.4
			c-0.4,0-0.7-0.1-0.9-0.3c-0.2-0.2-0.4-0.5-0.4-0.9c0-0.4,0.1-0.7,0.3-0.9S185.1,40.4,185.5,40.4z"/>
		<path id="XMLID_19_" class="st0" d="M210.9,59.6c-1.1-1.5-1.7-3.1-1.7-5c0-2.4,0.8-4.4,2.3-6c1.5-1.7,3.4-2.5,5.6-2.5
			c1.6,0,3.1,0.4,4.5,1.3c1.4,0.8,2.4,2,2.9,3.4v-8.5c0-0.6-0.3-0.8-0.8-0.8h-1.3v-0.3h1.6c0.7,0,1.3-0.1,1.8-0.4
			c0.5-0.2,0.7-0.6,0.7-1.1v-0.1h0.2V42v18.9c0,0.6,0.1,1,0.2,1.2c0.1,0.2,0.4,0.3,0.8,0.3l0.6,0l0.5,0l0,0.3
			c-1.1,0.1-2.2,0.3-3.1,0.6V63c0-0.5-0.1-1.4-0.3-2.5l-0.8-4.7v-2.3c0-1.3-0.3-2.5-1-3.5c-0.7-1.1-1.5-1.9-2.6-2.4
			c-1-0.6-2.1-0.8-3.3-0.8c-1.8,0-3.3,0.7-4.3,2.1c-1.1,1.4-1.6,3.2-1.6,5.4c0,1.7,0.3,3.2,0.8,4.5c1.5-0.9,2.9-1.6,4-2.1
			c1.2-0.5,2.3-0.7,3.5-0.7c0.9,0,1.7,0.3,2.3,0.8c0.6,0.6,1,1.2,1,2c0,1.2-0.5,2.3-1.5,3.1c-1,0.9-2.2,1.3-3.6,1.3
			c-1.2,0-2.4-0.2-3.5-0.7c-1.1-0.5-2.1-1.2-3-2c-1.2,0.8-2.2,1.4-2.9,1.9c-0.7,0.5-1.7,1-2.8,1.6c-1.1,0.6-2.2,1-3.3,1.3
			c-1.1,0.3-2.1,0.4-3.1,0.4c-3.2,0-6-1.4-8.7-4.3l0.2-0.2c1.9,2,4.5,3,7.7,3c1.1,0,2.2-0.1,3.3-0.4c1.1-0.2,2.2-0.6,3.3-1.1
			c1.1-0.5,2.1-1,2.8-1.4C208.8,60.9,209.7,60.3,210.9,59.6z M198.5,60.1c-2.3,0-4.2-0.6-5.6-1.9c-1.4-1.3-2.1-3-2.1-5.1
			c0-1.9,0.8-3.6,2.3-4.9c1.5-1.4,3.4-2,5.5-2c2.3,0,4.2,0.6,5.6,1.9c1.4,1.3,2.1,3,2.1,5c0,1.9-0.8,3.6-2.3,5
			C202.5,59.4,200.6,60.1,198.5,60.1z M198.6,59.6c1.6,0,2.8-0.5,3.8-1.6c0.9-1.1,1.4-2.5,1.4-4.3c0-1.9-0.5-3.6-1.6-5
			c-1.1-1.4-2.3-2-3.8-2c-1.6,0-2.8,0.5-3.8,1.6c-1,1.1-1.4,2.5-1.4,4.3c0,1.9,0.5,3.6,1.6,5C195.8,58.9,197.1,59.6,198.6,59.6z
			 M212.9,59.6c0.6,1,1.3,1.8,2.2,2.3c0.9,0.5,1.9,0.8,3,0.8c1.4,0,2.5-0.4,3.5-1.2c1-0.8,1.4-1.7,1.4-2.8c0-0.6-0.3-1.2-0.9-1.6
			c-0.6-0.5-1.3-0.7-2.2-0.7c-0.9,0-2,0.3-3.1,0.8C215.8,57.7,214.5,58.5,212.9,59.6z"/>
		<path id="XMLID_25_" class="st0" d="M234.4,66.8c1.6,0,2.7-0.8,3.2-2.3l0.5-1.4c0.1-0.2,0.1-0.5,0.1-0.7c0-0.3-0.1-0.6-0.2-0.8
			l-6.2-13.2c-0.3-0.7-0.6-1.2-0.8-1.4c-0.2-0.2-0.5-0.3-0.9-0.3h-0.4v-0.3h5.4v0.3h-2v0.1c0.3,0.1,0.6,0.5,1,1.3l4.9,10.4
			c0.1,0.3,0.2,0.7,0.2,1.2h0.2l4-11.2c0.1-0.4,0.2-0.7,0.2-0.9c0-0.6-0.5-0.9-1.4-0.9h-1.3v-0.3h4.9v0.2h-0.2c-0.4,0-0.8,0.1-1,0.4
			c-0.2,0.2-0.4,0.7-0.7,1.4l-5.8,16.2c-0.5,1.1-1,2-1.7,2.6c-0.7,0.6-1.4,0.9-2.1,0.9c-0.9,0-1.6-0.3-2.3-1
			c-0.6-0.6-0.9-1.4-0.9-2.4c0-0.9,0.3-1.7,1-2.2c0.6-0.6,1.5-0.8,2.5-0.8h0.6c0,0.4-0.1,0.6-0.4,0.9c-0.2,0.2-0.5,0.3-0.9,0.3
			c-0.7,0-1.2,0.2-1.6,0.5c-0.4,0.3-0.6,0.8-0.6,1.3c0,0.6,0.3,1.1,0.8,1.5C233,66.6,233.7,66.8,234.4,66.8z"/>
		<path id="XMLID_27_" class="st0" d="M253.8,42.7h4.1v0.4c0,0.4,0.1,0.8,0.2,1.2l5.8,15.7c0.1,0.3,0.2,0.7,0.2,1h0.3
			c0-0.2,0.1-0.6,0.2-1l4-13.4l-0.6-1.9c-0.2-0.7-0.4-1.2-0.6-1.4c-0.2-0.2-0.6-0.4-1-0.4h-0.6v-0.3h6.3v0.3h-2.7V43
			c0.4,0.1,0.7,0.6,0.9,1.3l4.7,15.7c0.1,0.5,0.2,0.8,0.2,1h0.4c0-0.3,0.1-0.6,0.3-1.1l5.6-15.3c0.1-0.3,0.2-0.6,0.2-0.8
			c0-0.6-0.5-0.9-1.4-0.9H279v-0.3h4.8v0.3h-0.4c-0.4,0-0.7,0.1-0.9,0.4c-0.2,0.3-0.4,0.7-0.6,1.4l-6.7,18.4l-1.6,0.1l-4.7-15.7
			l-4.7,15.6l-1.6,0.1l-6.7-18.5c-0.2-0.7-0.4-1.2-0.6-1.4c-0.2-0.2-0.5-0.3-1-0.3h-0.4V42.7z"/>
		<path id="XMLID_29_" class="st0" d="M286.7,59.6V48.2c0-0.6-0.3-0.8-0.8-0.8h-1.3v-0.3h1.6c0.7,0,1.3-0.1,1.8-0.4
			c0.5-0.2,0.7-0.6,0.7-1.1v-0.1h0.2v2.4v11.7c-0.2,0.4-0.3,0.8-0.3,1.1c0,0.5,0.2,0.9,0.5,1.2c0.4,0.3,0.8,0.5,1.3,0.5
			c0.5,0,0.9-0.2,1.2-0.5c0.3-0.3,0.5-0.7,0.5-1.2c0-0.3,0-0.6-0.1-0.8l0.2-0.1c0.1,0.3,0.1,0.6,0.1,0.9c0,0.7-0.2,1.3-0.7,1.8
			c-0.5,0.4-1.1,0.7-1.9,0.7c-0.8,0-1.5-0.4-2.1-1.1C287,61.5,286.7,60.6,286.7,59.6z M287.8,40.4c0.4,0,0.7,0.1,0.9,0.3
			c0.2,0.2,0.3,0.5,0.3,0.9c0,0.4-0.1,0.7-0.3,0.9c-0.2,0.2-0.5,0.4-0.9,0.4c-0.4,0-0.7-0.1-0.9-0.3c-0.2-0.2-0.3-0.5-0.3-0.9
			c0-0.4,0.1-0.7,0.3-0.9C287.1,40.5,287.4,40.4,287.8,40.4z"/>
		<path id="XMLID_32_" class="st0" d="M294.6,63.4c0,0.8,0.7,1.4,2.2,1.9c1.5,0.5,3.3,0.7,5.6,0.7c1.9,0,3.6-0.3,5-0.8
			c1.4-0.5,2.1-1.2,2.1-2c0-0.3-0.1-0.6-0.3-0.7c-0.2-0.2-0.5-0.3-0.8-0.4c-0.4-0.1-0.8-0.1-1.2-0.2c-0.4,0-0.9-0.1-1.5-0.1
			c-0.5,0-1,0-1.3,0c-0.3,0-0.8,0-1.3-0.1c-0.5-0.1-1-0.1-1.3-0.2c-0.3-0.1-0.7-0.2-1.1-0.4c-0.4-0.2-0.7-0.4-0.9-0.7
			c-0.2-0.3-0.4-0.6-0.6-1.1c-0.2-0.4-0.2-0.9-0.2-1.5v-0.3c-1.6-0.4-2.9-1.1-3.8-2.1c-0.9-1-1.4-2.3-1.4-3.8c0-1.5,0.8-2.9,2.3-4
			c1.5-1.1,3.3-1.6,5.5-1.6c2.8,0,4.9,0.7,6.4,2c0-0.2,0-0.4,0-0.5c0-0.6,0.1-1.2,0.4-1.7c0.3-0.5,0.7-1,1.2-1.3l0.5-0.3
			c0.2,0.3,0.2,0.5,0.2,0.8c0,0.4-0.2,0.7-0.5,0.8c-0.4,0.2-0.7,0.5-0.9,0.9s-0.3,0.8-0.3,1.2c0,0.4,0.1,0.7,0.3,1
			c0.5,0.8,0.7,1.6,0.7,2.5c0,1.7-0.8,3.2-2.3,4.4c-1.6,1.2-3.4,1.8-5.6,1.8c-0.7,0-1.4-0.1-2-0.2v0.2c0,0.8,0.3,1.3,0.9,1.6
			c0.6,0.3,1.5,0.4,2.7,0.4h1.7c0.8,0,1.4,0,1.9,0.1c0.5,0.1,1,0.2,1.6,0.4c0.5,0.2,0.9,0.6,1.2,1.1c0.3,0.5,0.4,1.1,0.4,1.9
			c0,1.2-0.8,2.3-2.3,3.3c-1.5,0.9-3.3,1.4-5.4,1.4c-2.4,0-4.3-0.4-5.9-1.3c-1.6-0.9-2.4-1.9-2.4-3.2c0-0.8,0.3-1.6,1-2.2
			s1.5-0.9,2.5-0.9h0.6c0,0.3-0.1,0.6-0.4,0.9c-0.2,0.2-0.5,0.4-0.9,0.4c-0.6,0-1.2,0.2-1.6,0.5C294.8,62.5,294.6,62.9,294.6,63.4z
			 M301.6,46.6c-1.7,0-3,0.4-4,1.3c-1,0.9-1.5,2-1.5,3.4c0,1.7,0.5,3.1,1.6,4.3c1.1,1.2,2.4,1.8,3.9,1.8c1.7,0,3.1-0.5,4.2-1.5
			c1.1-1,1.6-2.3,1.6-3.9c0-1.5-0.6-2.8-1.7-3.9C304.6,47.1,303.2,46.6,301.6,46.6z"/>
		<path id="XMLID_35_" class="st0" d="M321.8,63.2c-2.8,0-5-0.8-6.7-2.4c-1.7-1.6-2.5-3.6-2.5-6.2c0-2.4,0.9-4.4,2.7-6
			c1.8-1.7,4-2.5,6.5-2.5c2.8,0,5,0.8,6.7,2.3c1.7,1.6,2.5,3.6,2.5,6.2c0,2.4-0.9,4.4-2.7,6C326.6,62.3,324.4,63.2,321.8,63.2z
			 M321.9,62.7c2,0,3.6-0.7,4.9-2.1c1.2-1.4,1.8-3.2,1.8-5.4c0-2.4-0.7-4.4-2-6s-3-2.5-4.9-2.5c-2,0-3.6,0.7-4.8,2.1
			c-1.2,1.4-1.8,3.2-1.8,5.4c0,2.4,0.7,4.4,2,6C318.4,61.8,320,62.7,321.9,62.7z"/>
		<path id="XMLID_38_" class="st0" d="M335.2,61.2V48.8c0-0.3-0.1-0.5-0.3-0.6s-0.4-0.3-0.7-0.3c0,0-0.1,0-0.1,0l-1.7,0.1l0-0.2
			l2.2-0.5c0.6-0.1,1.2-0.4,1.6-0.7c0.4-0.4,0.7-0.8,0.7-1.3v-0.1h0.2v3.7c0,1.3-0.1,2.1-0.2,2.6v0.1h0.2c0.4-1.7,1-3.1,1.9-4.1
			c0.9-1,1.9-1.5,3.1-1.5c0.6,0,1.1,0.1,1.5,0.2c0.6,0.2,0.8,0.6,0.8,1.2c0,0.3-0.1,0.6-0.4,0.9c-0.2,0.3-0.5,0.4-0.9,0.4
			s-0.6-0.1-0.9-0.4c-0.3-0.3-0.4-0.5-0.4-0.9c0-0.2,0.1-0.4,0.2-0.6v0c-1.4,0-2.6,0.7-3.5,2.2c-0.9,1.4-1.3,3.4-1.3,5.7v6.5
			c0,1,0.5,1.5,1.5,1.5h1.8v0.2h-8v-0.3h1C334.7,62.7,335.2,62.2,335.2,61.2z"/>
	</g>
</g>
</svg>
