<?xml version="1.0" encoding="utf-8"?>
<!-- Generator: Adobe Illustrator 19.0.0, SVG Export Plug-In . SVG Version: 6.00 Build 0)  -->
<svg version="1.1" id="Warstwa_1" xmlns="http://www.w3.org/2000/svg" xmlns:xlink="http://www.w3.org/1999/xlink" x="0px" y="0px"
	 viewBox="0 0 470 109" style="enable-background:new 0 0 470 109;" xml:space="preserve">
<style type="text/css">
	.st0{fill:#301A09;}
</style>
<g id="XMLID_22_">
	<path id="XMLID_13_" class="st0" d="M66.1,4.6c0,0.8-0.9,1.5-1.9,1.5c-1.1,0-2-0.7-2-1.5c0-0.9,0.9-1.6,2-1.6
		C65.2,3,66.1,3.7,66.1,4.6"/>
	<path id="XMLID_12_" class="st0" d="M75.8,17.5h-1c0-6.8-10.8-12.5-10.9-12.5l0.5-0.7C64.9,4.5,75.8,10.2,75.8,17.5"/>
	<path id="XMLID_11_" class="st0" d="M86.8,3.7c0,0.9,0.9,1.7,1.9,1.7c1.1,0,2-0.8,2-1.7c0-0.9-0.9-1.7-2-1.7
		C87.7,2,86.8,2.8,86.8,3.7"/>
	<path id="XMLID_10_" class="st0" d="M78.1,17.5h-1C77.1,9.7,88,3.6,88.5,3.3L89,4C88.9,4.1,78.1,10.2,78.1,17.5"/>
	<path id="XMLID_9_" class="st0" d="M86.2,23.4c1.3-1.5,1.6-3.3,1.6-4.2c0-1.5-1-3.7-2.5-5.8l-1.3-1.5c-2-2.1-4.4-3.7-7-3.7
		c-2.5,0-5,1.6-7,3.7l-1.3,1.5c-1.5,2.1-2.5,4.3-2.5,5.8c0,0.9,0.4,2.6,1.6,4.2c2.4-1.5,5.4-2.5,9.1-2.5
		C80.8,20.9,83.8,21.8,86.2,23.4"/>
	<path id="XMLID_8_" class="st0" d="M90.1,32.5c-1.4-7.1-7.3-9.3-13-9.3c-5.6,0-11.6,2.3-13,9.3c-0.3,4.4,0.9,10,1.5,11.9
		c2.4,6.3,7.1,11.2,11.4,11.2s9-4.9,11.4-11.2C89.8,40,90.4,35.7,90.1,32.5"/>
	<path id="XMLID_7_" class="st0" d="M92.8,63.4c2.5,10.3,1.8,13.8-4.4,17.6c-8.7,5.3-17.4,5-25.8-2.3c-2.5-2.4-3.6-10.6-2.1-14.6
		c0.5-1.2,0.7-0.8,1.5-0.3C72.3,73.2,82.6,72.4,92.8,63.4"/>
	<path id="XMLID_6_" class="st0" d="M72.6,106.3c-5.7-2.3-9.7-7.4-12.7-14.3c-0.4-0.8-0.4-2.6-0.4-2.6c6.4,8.2,28.3,8.4,35.6-1.6
		c0,1.5-2.5,7.9-4.6,10.9c-2.5,3.6-5.5,6.6-9.2,7.7C77.4,107.5,74.8,107.1,72.6,106.3"/>
	<path id="XMLID_5_" class="st0" d="M76.9,62.9c-4.4-0.1-8.5-1.3-12.2-5.5c-1.4-1.7-1.5-3-0.3-4.9c0.8-1.2,1.5-2.4,2.2-3.6
		c1.5-2.4,2.9-3.2,5.1-1.4c3.9,3.2,7.9,2.2,11.7-0.8c0.8-0.7,1.3-0.6,1.9,0.1c1.4,1.4,2.5,2.9,3.4,4.7c2,3.8,2,4.4-0.7,7
		C84.7,61.7,80.9,63.1,76.9,62.9"/>
	<path id="XMLID_74_" class="st0" d="M6,84.5c0.7-3.9,2.7-8.5,5.5-12.7c12.1-18.1,27.2-32.7,47.7-40.9c8.6-3.4,8.8-3.2,10.7,6.5
		c4.1,20.4-5.6,42.7-22.5,53.7c-9.5,6.1-19.9,8.6-31.1,7C9.3,97.1,5.3,92.3,6,84.5 M63.5,50.6c0.5-2.2,0.1-5-0.1-7.7
		c-0.4-4.5,0.5-6.8-5.7-3.7c-13.5,6.6-24.5,16.4-34,27.9c-4.2,5-7.7,10.3-10,16.5c-1.7,4.8-0.4,6.9,4.7,7.6
		c4.4,0.7,8.9,0.5,13.2-0.8C49.8,84.8,61.8,69.9,63.5,50.6"/>
	<path id="XMLID_71_" class="st0" d="M137.7,98.1c-11.3,1.6-21.6-0.9-31.1-7c-17-11-26.6-33.3-22.5-53.7c1.9-9.7,2-10,10.7-6.5
		c20.5,8.2,35.7,22.9,47.7,40.9c2.8,4.2,4.8,8.8,5.4,12.7C148.8,92.3,144.8,97.1,137.7,98.1 M122.5,90.3c4.3,1.3,8.7,1.5,13.2,0.8
		c5.1-0.7,6.4-2.8,4.6-7.6c-2.2-6.2-5.7-11.5-9.9-16.5c-9.5-11.4-20.5-21.2-34-27.9c-6.3-3.1-5.4-0.8-5.7,3.7
		c-0.2,2.7-0.5,5.5-0.1,7.7C92.3,69.9,104.3,84.8,122.5,90.3"/>
</g>
<g id="XMLID_42_">
	<path id="XMLID_43_" class="st0" d="M173.7,68.8v-0.4h0.7c1,0,1.7-0.2,2.1-0.7c0.4-0.5,0.6-1.3,0.6-2.4V39.9c0-0.9-0.2-1.5-0.4-1.8
		c-0.2-0.3-0.8-0.5-1.8-0.5h-1.8v-0.4h6.5l12.5,25.2c0.4,0.9,0.7,1.5,0.7,1.9h0.2c0-0.4,0.2-1,0.6-1.9L206,37.2h6.5v0.4h-1.3
		c-1,0-1.7,0.2-2,0.7c-0.3,0.4-0.4,1.3-0.4,2.5v22c0,2.6,0.7,4.6,2.2,6.1c1.5,1.5,3.4,2.3,5.9,2.3c1.4,0,2.7-0.5,3.6-1.4
		s1.5-2.1,1.5-3.4c0-1.2-0.4-2.2-1.1-2.9c-0.7-0.8-1.7-1.2-2.9-1.3h-4v-0.4h1.5c1.1,0,1.7-0.1,1.9-0.4c0.2-0.2,0.4-0.9,0.4-1.9V45.9
		c0-0.9-0.4-1.3-1.3-1.3h-2.1v-0.4h2.5c1.1,0,2-0.2,2.8-0.5s1.2-1,1.2-1.8v-0.2h0.4v3.7v14.1c0,1.1,0.1,1.7,0.4,1.9
		c0.3,0.2,0.9,0.4,2,0.4h1.5v0.4h-5.5c0.8,0.4,1.5,0.9,2,1.6c0.5,0.7,0.7,1.6,0.7,2.5c0,1.7-0.7,3.1-2,4.3c-1.3,1.2-2.9,1.8-4.7,1.8
		c-3.1,0-5.7-1.1-7.6-3.2c-1.9-2.1-2.9-4.9-2.9-8.3v-18c0-1,0-1.6,0-1.9h-0.3c-0.1,0.2-0.3,0.8-0.7,1.8L191.7,69l-0.1,0.3h-0.1
		l-0.1-0.3l-12.7-25.9c-0.4-0.9-0.6-1.5-0.6-1.8h-0.2c0,0.3,0,0.8,0,1.5v22.9c0,1,0.2,1.7,0.6,2.1c0.4,0.4,1.1,0.6,2.1,0.6h1.6v0.4
		H173.7z M219.4,33.6c0.6,0,1.1,0.2,1.4,0.5c0.4,0.3,0.5,0.8,0.5,1.4c0,0.6-0.2,1.1-0.5,1.4c-0.3,0.4-0.8,0.5-1.4,0.5
		c-0.6,0-1.1-0.2-1.4-0.5c-0.4-0.4-0.5-0.8-0.5-1.5c0-0.6,0.2-1.1,0.5-1.4S218.7,33.6,219.4,33.6z"/>
	<path id="XMLID_46_" class="st0" d="M259,63.5c-1.8-2.3-2.7-4.9-2.7-7.7c0-3.7,1.2-6.8,3.6-9.4s5.3-3.9,8.7-3.9
		c2.5,0,4.8,0.7,6.9,2c2.1,1.3,3.7,3.1,4.6,5.3V36.6c0-0.9-0.4-1.3-1.3-1.3h-2.1v-0.4h2.5c1.1,0,2-0.2,2.8-0.5
		c0.8-0.4,1.2-1,1.2-1.8v-0.2h0.4v3.7v29.5c0,0.9,0.1,1.5,0.2,1.8c0.2,0.3,0.6,0.4,1.2,0.4l0.9,0l0.7,0l0,0.4
		c-1.8,0.2-3.4,0.5-4.9,1v-0.4c0-0.8-0.2-2.1-0.5-4l-1.2-7.3V54c0-2-0.5-3.9-1.6-5.5c-1.1-1.7-2.4-2.9-4-3.8
		c-1.6-0.9-3.3-1.3-5.1-1.3c-2.8,0-5.1,1.1-6.8,3.2c-1.7,2.1-2.5,5-2.5,8.5c0,2.6,0.4,5,1.3,7c2.4-1.4,4.5-2.5,6.3-3.2
		c1.8-0.7,3.6-1.1,5.4-1.1c1.4,0,2.6,0.4,3.6,1.3c1,0.9,1.5,1.9,1.5,3.1c0,1.9-0.8,3.5-2.4,4.9s-3.4,2-5.6,2c-1.9,0-3.7-0.4-5.5-1.1
		c-1.8-0.8-3.3-1.8-4.6-3.1c-1.9,1.3-3.4,2.2-4.6,3c-1.2,0.7-2.6,1.5-4.4,2.5s-3.5,1.6-5.1,2c-1.6,0.4-3.3,0.6-4.9,0.6
		c-4.9,0-9.4-2.2-13.5-6.7l0.3-0.3c3,3.1,7,4.6,12,4.6c1.8,0,3.5-0.2,5.2-0.5c1.7-0.4,3.4-0.9,5.2-1.7s3.2-1.5,4.3-2.1
		S257.1,64.6,259,63.5z M239.7,64.3c-3.6,0-6.6-1-8.8-3c-2.2-2-3.3-4.6-3.3-7.9c0-3,1.2-5.5,3.6-7.7c2.4-2.1,5.2-3.2,8.6-3.2
		c3.6,0,6.5,1,8.7,3c2.2,2,3.3,4.6,3.3,7.9c0,3-1.2,5.6-3.5,7.7S243,64.3,239.7,64.3z M239.8,63.5c2.4,0,4.4-0.8,5.9-2.5
		c1.5-1.7,2.2-3.9,2.2-6.7c0-3-0.8-5.6-2.5-7.7c-1.6-2.1-3.6-3.2-5.9-3.2c-2.4,0-4.4,0.9-5.9,2.5c-1.5,1.7-2.2,3.9-2.2,6.7
		c0,3,0.8,5.6,2.5,7.7S237.5,63.5,239.8,63.5z M262.1,63.5c0.9,1.6,2,2.7,3.4,3.6s3,1.3,4.7,1.3c2.1,0,3.9-0.6,5.4-1.8
		c1.5-1.2,2.2-2.7,2.2-4.4c0-1-0.5-1.8-1.4-2.5c-0.9-0.7-2-1.1-3.4-1.1c-1.5,0-3.1,0.4-4.8,1.3C266.6,60.7,264.5,61.9,262.1,63.5z"
		/>
	<path id="XMLID_51_" class="st0" d="M295.6,74.7c2.5,0,4.1-1.2,5-3.6l0.7-2.2c0.1-0.4,0.2-0.7,0.2-1.1c0-0.4-0.1-0.9-0.3-1.3
		L291.6,46c-0.5-1.1-0.9-1.8-1.3-2.2c-0.3-0.4-0.8-0.5-1.4-0.5h-0.7v-0.4h8.5v0.4h-3.2v0.1c0.4,0.1,0.9,0.8,1.5,2.1l7.6,16.1
		c0.2,0.5,0.3,1.1,0.3,1.8h0.3l6.3-17.4c0.2-0.6,0.3-1,0.3-1.4c0-0.9-0.7-1.4-2.2-1.4h-2v-0.4h7.6v0.4H313c-0.7,0-1.2,0.2-1.5,0.6
		c-0.3,0.4-0.7,1.1-1.1,2.2l-9.1,25.2c-0.7,1.8-1.6,3.1-2.6,4s-2.1,1.4-3.3,1.4c-1.4,0-2.5-0.5-3.5-1.5s-1.5-2.2-1.5-3.7
		s0.5-2.6,1.5-3.4c1-0.9,2.3-1.3,3.9-1.3h0.9c0,0.6-0.2,1-0.5,1.4s-0.8,0.5-1.4,0.5c-1.1,0-1.9,0.3-2.5,0.8s-1,1.2-1,2.1
		c0,0.9,0.4,1.7,1.3,2.4C293.4,74.4,294.4,74.7,295.6,74.7z"/>
	<path id="XMLID_53_" class="st0" d="M325.7,37.2h6.3v0.6c0,0.6,0.1,1.2,0.3,1.9l9.1,24.5c0.2,0.5,0.3,1.1,0.3,1.6h0.4
		c0-0.4,0.1-0.9,0.3-1.6l6.3-20.9l-0.9-2.9c-0.3-1.1-0.6-1.8-1-2.2c-0.3-0.4-0.9-0.5-1.6-0.5h-1v-0.4h9.8v0.4h-4.2v0.1
		c0.6,0.2,1,0.9,1.3,2l7.4,24.5c0.2,0.7,0.3,1.2,0.3,1.6h0.6c0-0.4,0.1-1,0.4-1.7l8.7-23.8c0.2-0.5,0.3-1,0.3-1.3
		c0-0.9-0.7-1.4-2.2-1.4H365v-0.4h7.5v0.4h-0.7c-0.6,0-1.1,0.2-1.4,0.6s-0.6,1.1-1,2.1L359,68.9l-2.4,0.2l-7.4-24.5L341.8,69
		l-2.5,0.2l-10.5-28.9c-0.4-1.1-0.7-1.9-1-2.2c-0.3-0.3-0.8-0.5-1.6-0.5h-0.7V37.2z"/>
	<path id="XMLID_55_" class="st0" d="M377,63.6V45.9c0-0.9-0.4-1.3-1.3-1.3h-2v-0.4h2.4c1.1,0,2-0.2,2.8-0.5c0.8-0.4,1.2-1,1.2-1.8
		v-0.2h0.4v3.7v18.2c-0.3,0.6-0.4,1.2-0.4,1.8c0,0.7,0.3,1.4,0.8,1.9s1.2,0.8,2,0.8s1.4-0.2,1.8-0.7c0.5-0.5,0.7-1.1,0.7-1.9
		c0-0.4-0.1-0.9-0.2-1.3l0.4-0.2c0.1,0.5,0.2,1,0.2,1.5c0,1.1-0.4,2.1-1.1,2.8c-0.7,0.7-1.7,1-2.9,1c-1.3,0-2.4-0.5-3.3-1.6
		S377,65.2,377,63.6z M378.7,33.6c0.6,0,1,0.2,1.4,0.5c0.3,0.3,0.5,0.8,0.5,1.4c0,0.6-0.2,1.1-0.5,1.4c-0.3,0.4-0.8,0.5-1.4,0.5
		c-0.6,0-1.1-0.2-1.4-0.5s-0.5-0.8-0.5-1.5c0-0.6,0.2-1.1,0.5-1.4C377.6,33.8,378.1,33.6,378.7,33.6z"/>
	<path id="XMLID_58_" class="st0" d="M389.3,69.6c0,1.2,1.1,2.1,3.4,2.9c2.3,0.8,5.2,1.2,8.7,1.2c3,0,5.6-0.4,7.9-1.3
		s3.3-1.9,3.3-3.1c0-0.5-0.1-0.9-0.4-1.2s-0.7-0.5-1.3-0.7s-1.2-0.2-1.8-0.3c-0.6-0.1-1.4-0.1-2.3-0.1c-0.8,0-1.5,0-2.1,0
		s-1.2-0.1-2-0.2s-1.5-0.2-2-0.4c-0.5-0.1-1.1-0.4-1.7-0.7s-1.1-0.7-1.5-1.1s-0.6-1-0.9-1.6s-0.4-1.4-0.4-2.3v-0.4
		c-2.5-0.6-4.5-1.7-5.9-3.3s-2.2-3.6-2.2-5.9c0-2.4,1.2-4.5,3.5-6.2c2.4-1.7,5.2-2.6,8.5-2.6c4.3,0,7.6,1.1,9.9,3.2
		c0-0.3,0-0.6,0-0.8c0-1,0.2-1.9,0.7-2.7c0.4-0.8,1.1-1.5,1.9-2l0.7-0.4c0.2,0.4,0.4,0.8,0.4,1.3c0,0.6-0.2,1-0.7,1.3
		c-0.6,0.4-1.1,0.8-1.4,1.4s-0.5,1.3-0.5,1.9c0,0.6,0.1,1.1,0.4,1.6c0.7,1.2,1.1,2.5,1.1,3.9c0,2.7-1.2,4.9-3.6,6.8
		c-2.4,1.9-5.4,2.8-8.8,2.8c-1.1,0-2.2-0.1-3.2-0.3v0.3c0,1.2,0.5,2,1.5,2.4s2.4,0.6,4.2,0.6h2.7c1.2,0,2.2,0.1,3,0.2
		s1.6,0.3,2.4,0.7s1.4,0.9,1.9,1.7s0.6,1.8,0.6,2.9c0,1.9-1.2,3.6-3.6,5.1s-5.2,2.2-8.4,2.2c-3.7,0-6.8-0.7-9.2-2s-3.7-3-3.7-5
		c0-1.3,0.5-2.4,1.6-3.4s2.3-1.4,3.8-1.4h0.9c0,0.5-0.2,1-0.6,1.3s-0.8,0.5-1.4,0.5c-1,0-1.8,0.3-2.5,0.8
		C389.6,68.1,389.3,68.8,389.3,69.6z M400.3,43.3c-2.6,0-4.7,0.7-6.3,2c-1.6,1.3-2.4,3.1-2.4,5.3c0,2.6,0.8,4.8,2.5,6.7
		c1.7,1.9,3.7,2.8,6.1,2.8c2.7,0,4.9-0.8,6.5-2.3s2.5-3.5,2.5-6c0-2.3-0.9-4.3-2.6-6C404.9,44.1,402.7,43.3,400.3,43.3z"/>
	<path id="XMLID_61_" class="st0" d="M431.7,69.1c-4.3,0-7.8-1.2-10.4-3.7s-4-5.7-4-9.6c0-3.7,1.4-6.8,4.2-9.4s6.2-3.9,10.2-3.9
		c4.3,0,7.8,1.2,10.5,3.6c2.6,2.4,4,5.6,4,9.6c0,3.7-1.4,6.8-4.2,9.4C439.1,67.8,435.7,69.1,431.7,69.1z M431.9,68.3
		c3.1,0,5.7-1.1,7.6-3.2c1.9-2.1,2.9-5,2.9-8.5c0-3.7-1.1-6.8-3.2-9.4c-2.1-2.6-4.6-3.9-7.6-3.9c-3.1,0-5.6,1.1-7.5,3.2
		c-1.9,2.1-2.9,5-2.9,8.5c0,3.7,1,6.8,3.1,9.4C426.4,67,428.9,68.3,431.9,68.3z"/>
	<path id="XMLID_64_" class="st0" d="M452.6,66V46.7c0-0.4-0.1-0.7-0.4-1s-0.6-0.4-1.1-0.4c-0.1,0-0.1,0-0.2,0l-2.6,0.2l0-0.3
		l3.4-0.7c1-0.2,1.8-0.6,2.5-1.1c0.7-0.6,1-1.3,1-2.1v-0.2h0.4v5.8c0,2-0.1,3.3-0.4,4v0.1h0.4c0.6-2.7,1.6-4.8,3-6.3
		c1.4-1.5,3-2.3,4.9-2.3c0.9,0,1.7,0.1,2.3,0.4c0.9,0.3,1.3,0.9,1.3,1.8c0,0.5-0.2,1-0.6,1.4s-0.8,0.6-1.4,0.6s-1-0.2-1.4-0.6
		c-0.4-0.4-0.6-0.8-0.6-1.4c0-0.3,0.1-0.7,0.3-1v0c-2.2,0-4,1.1-5.4,3.4c-1.4,2.3-2,5.2-2,8.9v10.2c0,1.6,0.8,2.3,2.4,2.3h2.8v0.4
		h-12.4v-0.4h1.5C451.8,68.4,452.6,67.6,452.6,66z"/>
</g>
</svg>
