<?xml version="1.0" standalone="no"?>
<svg xmlns="http://www.w3.org/2000/svg" version="1.1" width="220" height="220">
	<!-- Created with https://api.qrserver.com (QR Code API, see goQR.me/api for information) -->
	<title>QR Code</title>
	<desc>BEGIN:VCARD
VERSION:2.1
FN:Miody Wigor
N:;Miody Wigor
TEL;HOME;VOICE:730 816 661
EMAIL;HOME;INTERNET:kontakt@miodywigor.pl
URL:www.miodywigor.pl
ADR:;;Rogity 3AB;Braniewo;;14-500;
ORG:Piotr Wawryszczuk
END:VCARD
</desc>
	<rect style="fill:rgb(255, 255, 255);fill-opacity:1" x="0" y="0" width="220" height="220" />
	<g id="elements">
		<path style="fill:rgb(0, 0, 0)" d="M 4,4 l 4,0 0,4 -4,0 z M 8,4 l 4,0 0,4 -4,0 z M 12,4 l 4,0 0,4 -4,0 z M 16,4 l 4,0 0,4 -4,0 z M 20,4 l 4,0 0,4 -4,0 z M 24,4 l 4,0 0,4 -4,0 z M 28,4 l 4,0 0,4 -4,0 z M 40,4 l 4,0 0,4 -4,0 z M 44,4 l 4,0 0,4 -4,0 z M 48,4 l 4,0 0,4 -4,0 z M 56,4 l 4,0 0,4 -4,0 z M 64,4 l 4,0 0,4 -4,0 z M 76,4 l 4,0 0,4 -4,0 z M 80,4 l 4,0 0,4 -4,0 z M 84,4 l 4,0 0,4 -4,0 z M 100,4 l 4,0 0,4 -4,0 z M 104,4 l 4,0 0,4 -4,0 z M 108,4 l 4,0 0,4 -4,0 z M 112,4 l 4,0 0,4 -4,0 z M 116,4 l 4,0 0,4 -4,0 z M 144,4 l 4,0 0,4 -4,0 z M 160,4 l 4,0 0,4 -4,0 z M 164,4 l 4,0 0,4 -4,0 z M 172,4 l 4,0 0,4 -4,0 z M 188,4 l 4,0 0,4 -4,0 z M 192,4 l 4,0 0,4 -4,0 z M 196,4 l 4,0 0,4 -4,0 z M 200,4 l 4,0 0,4 -4,0 z M 204,4 l 4,0 0,4 -4,0 z M 208,4 l 4,0 0,4 -4,0 z M 212,4 l 4,0 0,4 -4,0 z M 4,8 l 4,0 0,4 -4,0 z M 28,8 l 4,0 0,4 -4,0 z M 36,8 l 4,0 0,4 -4,0 z M 48,8 l 4,0 0,4 -4,0 z M 56,8 l 4,0 0,4 -4,0 z M 60,8 l 4,0 0,4 -4,0 z M 84,8 l 4,0 0,4 -4,0 z M 88,8 l 4,0 0,4 -4,0 z M 100,8 l 4,0 0,4 -4,0 z M 104,8 l 4,0 0,4 -4,0 z M 112,8 l 4,0 0,4 -4,0 z M 116,8 l 4,0 0,4 -4,0 z M 124,8 l 4,0 0,4 -4,0 z M 136,8 l 4,0 0,4 -4,0 z M 140,8 l 4,0 0,4 -4,0 z M 144,8 l 4,0 0,4 -4,0 z M 148,8 l 4,0 0,4 -4,0 z M 160,8 l 4,0 0,4 -4,0 z M 172,8 l 4,0 0,4 -4,0 z M 176,8 l 4,0 0,4 -4,0 z M 188,8 l 4,0 0,4 -4,0 z M 212,8 l 4,0 0,4 -4,0 z M 4,12 l 4,0 0,4 -4,0 z M 12,12 l 4,0 0,4 -4,0 z M 16,12 l 4,0 0,4 -4,0 z M 20,12 l 4,0 0,4 -4,0 z M 28,12 l 4,0 0,4 -4,0 z M 40,12 l 4,0 0,4 -4,0 z M 60,12 l 4,0 0,4 -4,0 z M 64,12 l 4,0 0,4 -4,0 z M 72,12 l 4,0 0,4 -4,0 z M 76,12 l 4,0 0,4 -4,0 z M 80,12 l 4,0 0,4 -4,0 z M 84,12 l 4,0 0,4 -4,0 z M 88,12 l 4,0 0,4 -4,0 z M 104,12 l 4,0 0,4 -4,0 z M 108,12 l 4,0 0,4 -4,0 z M 112,12 l 4,0 0,4 -4,0 z M 120,12 l 4,0 0,4 -4,0 z M 124,12 l 4,0 0,4 -4,0 z M 128,12 l 4,0 0,4 -4,0 z M 140,12 l 4,0 0,4 -4,0 z M 144,12 l 4,0 0,4 -4,0 z M 148,12 l 4,0 0,4 -4,0 z M 152,12 l 4,0 0,4 -4,0 z M 156,12 l 4,0 0,4 -4,0 z M 176,12 l 4,0 0,4 -4,0 z M 188,12 l 4,0 0,4 -4,0 z M 196,12 l 4,0 0,4 -4,0 z M 200,12 l 4,0 0,4 -4,0 z M 204,12 l 4,0 0,4 -4,0 z M 212,12 l 4,0 0,4 -4,0 z M 4,16 l 4,0 0,4 -4,0 z M 12,16 l 4,0 0,4 -4,0 z M 16,16 l 4,0 0,4 -4,0 z M 20,16 l 4,0 0,4 -4,0 z M 28,16 l 4,0 0,4 -4,0 z M 36,16 l 4,0 0,4 -4,0 z M 40,16 l 4,0 0,4 -4,0 z M 52,16 l 4,0 0,4 -4,0 z M 56,16 l 4,0 0,4 -4,0 z M 72,16 l 4,0 0,4 -4,0 z M 76,16 l 4,0 0,4 -4,0 z M 80,16 l 4,0 0,4 -4,0 z M 88,16 l 4,0 0,4 -4,0 z M 92,16 l 4,0 0,4 -4,0 z M 96,16 l 4,0 0,4 -4,0 z M 100,16 l 4,0 0,4 -4,0 z M 104,16 l 4,0 0,4 -4,0 z M 112,16 l 4,0 0,4 -4,0 z M 116,16 l 4,0 0,4 -4,0 z M 124,16 l 4,0 0,4 -4,0 z M 128,16 l 4,0 0,4 -4,0 z M 132,16 l 4,0 0,4 -4,0 z M 144,16 l 4,0 0,4 -4,0 z M 148,16 l 4,0 0,4 -4,0 z M 152,16 l 4,0 0,4 -4,0 z M 172,16 l 4,0 0,4 -4,0 z M 180,16 l 4,0 0,4 -4,0 z M 188,16 l 4,0 0,4 -4,0 z M 196,16 l 4,0 0,4 -4,0 z M 200,16 l 4,0 0,4 -4,0 z M 204,16 l 4,0 0,4 -4,0 z M 212,16 l 4,0 0,4 -4,0 z M 4,20 l 4,0 0,4 -4,0 z M 12,20 l 4,0 0,4 -4,0 z M 16,20 l 4,0 0,4 -4,0 z M 20,20 l 4,0 0,4 -4,0 z M 28,20 l 4,0 0,4 -4,0 z M 44,20 l 4,0 0,4 -4,0 z M 56,20 l 4,0 0,4 -4,0 z M 64,20 l 4,0 0,4 -4,0 z M 72,20 l 4,0 0,4 -4,0 z M 76,20 l 4,0 0,4 -4,0 z M 100,20 l 4,0 0,4 -4,0 z M 104,20 l 4,0 0,4 -4,0 z M 108,20 l 4,0 0,4 -4,0 z M 112,20 l 4,0 0,4 -4,0 z M 116,20 l 4,0 0,4 -4,0 z M 128,20 l 4,0 0,4 -4,0 z M 132,20 l 4,0 0,4 -4,0 z M 140,20 l 4,0 0,4 -4,0 z M 144,20 l 4,0 0,4 -4,0 z M 148,20 l 4,0 0,4 -4,0 z M 160,20 l 4,0 0,4 -4,0 z M 164,20 l 4,0 0,4 -4,0 z M 172,20 l 4,0 0,4 -4,0 z M 188,20 l 4,0 0,4 -4,0 z M 196,20 l 4,0 0,4 -4,0 z M 200,20 l 4,0 0,4 -4,0 z M 204,20 l 4,0 0,4 -4,0 z M 212,20 l 4,0 0,4 -4,0 z M 4,24 l 4,0 0,4 -4,0 z M 28,24 l 4,0 0,4 -4,0 z M 36,24 l 4,0 0,4 -4,0 z M 44,24 l 4,0 0,4 -4,0 z M 56,24 l 4,0 0,4 -4,0 z M 60,24 l 4,0 0,4 -4,0 z M 76,24 l 4,0 0,4 -4,0 z M 80,24 l 4,0 0,4 -4,0 z M 88,24 l 4,0 0,4 -4,0 z M 96,24 l 4,0 0,4 -4,0 z M 100,24 l 4,0 0,4 -4,0 z M 116,24 l 4,0 0,4 -4,0 z M 120,24 l 4,0 0,4 -4,0 z M 124,24 l 4,0 0,4 -4,0 z M 152,24 l 4,0 0,4 -4,0 z M 160,24 l 4,0 0,4 -4,0 z M 164,24 l 4,0 0,4 -4,0 z M 168,24 l 4,0 0,4 -4,0 z M 172,24 l 4,0 0,4 -4,0 z M 188,24 l 4,0 0,4 -4,0 z M 212,24 l 4,0 0,4 -4,0 z M 4,28 l 4,0 0,4 -4,0 z M 8,28 l 4,0 0,4 -4,0 z M 12,28 l 4,0 0,4 -4,0 z M 16,28 l 4,0 0,4 -4,0 z M 20,28 l 4,0 0,4 -4,0 z M 24,28 l 4,0 0,4 -4,0 z M 28,28 l 4,0 0,4 -4,0 z M 36,28 l 4,0 0,4 -4,0 z M 44,28 l 4,0 0,4 -4,0 z M 52,28 l 4,0 0,4 -4,0 z M 60,28 l 4,0 0,4 -4,0 z M 68,28 l 4,0 0,4 -4,0 z M 76,28 l 4,0 0,4 -4,0 z M 84,28 l 4,0 0,4 -4,0 z M 92,28 l 4,0 0,4 -4,0 z M 100,28 l 4,0 0,4 -4,0 z M 108,28 l 4,0 0,4 -4,0 z M 116,28 l 4,0 0,4 -4,0 z M 124,28 l 4,0 0,4 -4,0 z M 132,28 l 4,0 0,4 -4,0 z M 140,28 l 4,0 0,4 -4,0 z M 148,28 l 4,0 0,4 -4,0 z M 156,28 l 4,0 0,4 -4,0 z M 164,28 l 4,0 0,4 -4,0 z M 172,28 l 4,0 0,4 -4,0 z M 180,28 l 4,0 0,4 -4,0 z M 188,28 l 4,0 0,4 -4,0 z M 192,28 l 4,0 0,4 -4,0 z M 196,28 l 4,0 0,4 -4,0 z M 200,28 l 4,0 0,4 -4,0 z M 204,28 l 4,0 0,4 -4,0 z M 208,28 l 4,0 0,4 -4,0 z M 212,28 l 4,0 0,4 -4,0 z M 44,32 l 4,0 0,4 -4,0 z M 48,32 l 4,0 0,4 -4,0 z M 52,32 l 4,0 0,4 -4,0 z M 60,32 l 4,0 0,4 -4,0 z M 64,32 l 4,0 0,4 -4,0 z M 68,32 l 4,0 0,4 -4,0 z M 72,32 l 4,0 0,4 -4,0 z M 76,32 l 4,0 0,4 -4,0 z M 88,32 l 4,0 0,4 -4,0 z M 92,32 l 4,0 0,4 -4,0 z M 100,32 l 4,0 0,4 -4,0 z M 116,32 l 4,0 0,4 -4,0 z M 120,32 l 4,0 0,4 -4,0 z M 132,32 l 4,0 0,4 -4,0 z M 140,32 l 4,0 0,4 -4,0 z M 156,32 l 4,0 0,4 -4,0 z M 164,32 l 4,0 0,4 -4,0 z M 168,32 l 4,0 0,4 -4,0 z M 176,32 l 4,0 0,4 -4,0 z M 180,32 l 4,0 0,4 -4,0 z M 4,36 l 4,0 0,4 -4,0 z M 8,36 l 4,0 0,4 -4,0 z M 12,36 l 4,0 0,4 -4,0 z M 16,36 l 4,0 0,4 -4,0 z M 20,36 l 4,0 0,4 -4,0 z M 28,36 l 4,0 0,4 -4,0 z M 32,36 l 4,0 0,4 -4,0 z M 36,36 l 4,0 0,4 -4,0 z M 52,36 l 4,0 0,4 -4,0 z M 56,36 l 4,0 0,4 -4,0 z M 60,36 l 4,0 0,4 -4,0 z M 64,36 l 4,0 0,4 -4,0 z M 76,36 l 4,0 0,4 -4,0 z M 80,36 l 4,0 0,4 -4,0 z M 88,36 l 4,0 0,4 -4,0 z M 92,36 l 4,0 0,4 -4,0 z M 96,36 l 4,0 0,4 -4,0 z M 100,36 l 4,0 0,4 -4,0 z M 104,36 l 4,0 0,4 -4,0 z M 108,36 l 4,0 0,4 -4,0 z M 112,36 l 4,0 0,4 -4,0 z M 116,36 l 4,0 0,4 -4,0 z M 120,36 l 4,0 0,4 -4,0 z M 124,36 l 4,0 0,4 -4,0 z M 140,36 l 4,0 0,4 -4,0 z M 144,36 l 4,0 0,4 -4,0 z M 148,36 l 4,0 0,4 -4,0 z M 156,36 l 4,0 0,4 -4,0 z M 184,36 l 4,0 0,4 -4,0 z M 192,36 l 4,0 0,4 -4,0 z M 200,36 l 4,0 0,4 -4,0 z M 208,36 l 4,0 0,4 -4,0 z M 16,40 l 4,0 0,4 -4,0 z M 20,40 l 4,0 0,4 -4,0 z M 68,40 l 4,0 0,4 -4,0 z M 72,40 l 4,0 0,4 -4,0 z M 76,40 l 4,0 0,4 -4,0 z M 88,40 l 4,0 0,4 -4,0 z M 92,40 l 4,0 0,4 -4,0 z M 96,40 l 4,0 0,4 -4,0 z M 100,40 l 4,0 0,4 -4,0 z M 128,40 l 4,0 0,4 -4,0 z M 132,40 l 4,0 0,4 -4,0 z M 144,40 l 4,0 0,4 -4,0 z M 148,40 l 4,0 0,4 -4,0 z M 152,40 l 4,0 0,4 -4,0 z M 164,40 l 4,0 0,4 -4,0 z M 172,40 l 4,0 0,4 -4,0 z M 176,40 l 4,0 0,4 -4,0 z M 188,40 l 4,0 0,4 -4,0 z M 200,40 l 4,0 0,4 -4,0 z M 208,40 l 4,0 0,4 -4,0 z M 212,40 l 4,0 0,4 -4,0 z M 4,44 l 4,0 0,4 -4,0 z M 16,44 l 4,0 0,4 -4,0 z M 24,44 l 4,0 0,4 -4,0 z M 28,44 l 4,0 0,4 -4,0 z M 32,44 l 4,0 0,4 -4,0 z M 36,44 l 4,0 0,4 -4,0 z M 48,44 l 4,0 0,4 -4,0 z M 56,44 l 4,0 0,4 -4,0 z M 60,44 l 4,0 0,4 -4,0 z M 64,44 l 4,0 0,4 -4,0 z M 68,44 l 4,0 0,4 -4,0 z M 80,44 l 4,0 0,4 -4,0 z M 92,44 l 4,0 0,4 -4,0 z M 100,44 l 4,0 0,4 -4,0 z M 124,44 l 4,0 0,4 -4,0 z M 132,44 l 4,0 0,4 -4,0 z M 140,44 l 4,0 0,4 -4,0 z M 164,44 l 4,0 0,4 -4,0 z M 168,44 l 4,0 0,4 -4,0 z M 180,44 l 4,0 0,4 -4,0 z M 192,44 l 4,0 0,4 -4,0 z M 196,44 l 4,0 0,4 -4,0 z M 200,44 l 4,0 0,4 -4,0 z M 212,44 l 4,0 0,4 -4,0 z M 12,48 l 4,0 0,4 -4,0 z M 16,48 l 4,0 0,4 -4,0 z M 32,48 l 4,0 0,4 -4,0 z M 40,48 l 4,0 0,4 -4,0 z M 48,48 l 4,0 0,4 -4,0 z M 52,48 l 4,0 0,4 -4,0 z M 56,48 l 4,0 0,4 -4,0 z M 68,48 l 4,0 0,4 -4,0 z M 88,48 l 4,0 0,4 -4,0 z M 92,48 l 4,0 0,4 -4,0 z M 112,48 l 4,0 0,4 -4,0 z M 124,48 l 4,0 0,4 -4,0 z M 128,48 l 4,0 0,4 -4,0 z M 136,48 l 4,0 0,4 -4,0 z M 140,48 l 4,0 0,4 -4,0 z M 144,48 l 4,0 0,4 -4,0 z M 148,48 l 4,0 0,4 -4,0 z M 152,48 l 4,0 0,4 -4,0 z M 156,48 l 4,0 0,4 -4,0 z M 176,48 l 4,0 0,4 -4,0 z M 184,48 l 4,0 0,4 -4,0 z M 188,48 l 4,0 0,4 -4,0 z M 192,48 l 4,0 0,4 -4,0 z M 196,48 l 4,0 0,4 -4,0 z M 200,48 l 4,0 0,4 -4,0 z M 4,52 l 4,0 0,4 -4,0 z M 16,52 l 4,0 0,4 -4,0 z M 20,52 l 4,0 0,4 -4,0 z M 24,52 l 4,0 0,4 -4,0 z M 28,52 l 4,0 0,4 -4,0 z M 40,52 l 4,0 0,4 -4,0 z M 44,52 l 4,0 0,4 -4,0 z M 48,52 l 4,0 0,4 -4,0 z M 56,52 l 4,0 0,4 -4,0 z M 60,52 l 4,0 0,4 -4,0 z M 72,52 l 4,0 0,4 -4,0 z M 80,52 l 4,0 0,4 -4,0 z M 84,52 l 4,0 0,4 -4,0 z M 88,52 l 4,0 0,4 -4,0 z M 92,52 l 4,0 0,4 -4,0 z M 108,52 l 4,0 0,4 -4,0 z M 112,52 l 4,0 0,4 -4,0 z M 116,52 l 4,0 0,4 -4,0 z M 120,52 l 4,0 0,4 -4,0 z M 124,52 l 4,0 0,4 -4,0 z M 132,52 l 4,0 0,4 -4,0 z M 140,52 l 4,0 0,4 -4,0 z M 144,52 l 4,0 0,4 -4,0 z M 148,52 l 4,0 0,4 -4,0 z M 156,52 l 4,0 0,4 -4,0 z M 164,52 l 4,0 0,4 -4,0 z M 168,52 l 4,0 0,4 -4,0 z M 176,52 l 4,0 0,4 -4,0 z M 188,52 l 4,0 0,4 -4,0 z M 192,52 l 4,0 0,4 -4,0 z M 196,52 l 4,0 0,4 -4,0 z M 200,52 l 4,0 0,4 -4,0 z M 212,52 l 4,0 0,4 -4,0 z M 4,56 l 4,0 0,4 -4,0 z M 8,56 l 4,0 0,4 -4,0 z M 32,56 l 4,0 0,4 -4,0 z M 36,56 l 4,0 0,4 -4,0 z M 52,56 l 4,0 0,4 -4,0 z M 56,56 l 4,0 0,4 -4,0 z M 68,56 l 4,0 0,4 -4,0 z M 72,56 l 4,0 0,4 -4,0 z M 76,56 l 4,0 0,4 -4,0 z M 84,56 l 4,0 0,4 -4,0 z M 100,56 l 4,0 0,4 -4,0 z M 104,56 l 4,0 0,4 -4,0 z M 108,56 l 4,0 0,4 -4,0 z M 112,56 l 4,0 0,4 -4,0 z M 120,56 l 4,0 0,4 -4,0 z M 132,56 l 4,0 0,4 -4,0 z M 140,56 l 4,0 0,4 -4,0 z M 152,56 l 4,0 0,4 -4,0 z M 172,56 l 4,0 0,4 -4,0 z M 180,56 l 4,0 0,4 -4,0 z M 188,56 l 4,0 0,4 -4,0 z M 204,56 l 4,0 0,4 -4,0 z M 4,60 l 4,0 0,4 -4,0 z M 8,60 l 4,0 0,4 -4,0 z M 12,60 l 4,0 0,4 -4,0 z M 16,60 l 4,0 0,4 -4,0 z M 24,60 l 4,0 0,4 -4,0 z M 28,60 l 4,0 0,4 -4,0 z M 32,60 l 4,0 0,4 -4,0 z M 36,60 l 4,0 0,4 -4,0 z M 40,60 l 4,0 0,4 -4,0 z M 44,60 l 4,0 0,4 -4,0 z M 52,60 l 4,0 0,4 -4,0 z M 68,60 l 4,0 0,4 -4,0 z M 72,60 l 4,0 0,4 -4,0 z M 80,60 l 4,0 0,4 -4,0 z M 84,60 l 4,0 0,4 -4,0 z M 88,60 l 4,0 0,4 -4,0 z M 96,60 l 4,0 0,4 -4,0 z M 112,60 l 4,0 0,4 -4,0 z M 116,60 l 4,0 0,4 -4,0 z M 124,60 l 4,0 0,4 -4,0 z M 136,60 l 4,0 0,4 -4,0 z M 160,60 l 4,0 0,4 -4,0 z M 164,60 l 4,0 0,4 -4,0 z M 172,60 l 4,0 0,4 -4,0 z M 176,60 l 4,0 0,4 -4,0 z M 180,60 l 4,0 0,4 -4,0 z M 200,60 l 4,0 0,4 -4,0 z M 204,60 l 4,0 0,4 -4,0 z M 208,60 l 4,0 0,4 -4,0 z M 212,60 l 4,0 0,4 -4,0 z M 12,64 l 4,0 0,4 -4,0 z M 20,64 l 4,0 0,4 -4,0 z M 36,64 l 4,0 0,4 -4,0 z M 52,64 l 4,0 0,4 -4,0 z M 56,64 l 4,0 0,4 -4,0 z M 64,64 l 4,0 0,4 -4,0 z M 68,64 l 4,0 0,4 -4,0 z M 92,64 l 4,0 0,4 -4,0 z M 96,64 l 4,0 0,4 -4,0 z M 100,64 l 4,0 0,4 -4,0 z M 108,64 l 4,0 0,4 -4,0 z M 112,64 l 4,0 0,4 -4,0 z M 128,64 l 4,0 0,4 -4,0 z M 132,64 l 4,0 0,4 -4,0 z M 136,64 l 4,0 0,4 -4,0 z M 152,64 l 4,0 0,4 -4,0 z M 156,64 l 4,0 0,4 -4,0 z M 160,64 l 4,0 0,4 -4,0 z M 164,64 l 4,0 0,4 -4,0 z M 180,64 l 4,0 0,4 -4,0 z M 184,64 l 4,0 0,4 -4,0 z M 188,64 l 4,0 0,4 -4,0 z M 200,64 l 4,0 0,4 -4,0 z M 204,64 l 4,0 0,4 -4,0 z M 208,64 l 4,0 0,4 -4,0 z M 212,64 l 4,0 0,4 -4,0 z M 8,68 l 4,0 0,4 -4,0 z M 12,68 l 4,0 0,4 -4,0 z M 16,68 l 4,0 0,4 -4,0 z M 20,68 l 4,0 0,4 -4,0 z M 24,68 l 4,0 0,4 -4,0 z M 28,68 l 4,0 0,4 -4,0 z M 32,68 l 4,0 0,4 -4,0 z M 36,68 l 4,0 0,4 -4,0 z M 40,68 l 4,0 0,4 -4,0 z M 48,68 l 4,0 0,4 -4,0 z M 72,68 l 4,0 0,4 -4,0 z M 100,68 l 4,0 0,4 -4,0 z M 104,68 l 4,0 0,4 -4,0 z M 116,68 l 4,0 0,4 -4,0 z M 120,68 l 4,0 0,4 -4,0 z M 136,68 l 4,0 0,4 -4,0 z M 140,68 l 4,0 0,4 -4,0 z M 144,68 l 4,0 0,4 -4,0 z M 148,68 l 4,0 0,4 -4,0 z M 156,68 l 4,0 0,4 -4,0 z M 188,68 l 4,0 0,4 -4,0 z M 192,68 l 4,0 0,4 -4,0 z M 196,68 l 4,0 0,4 -4,0 z M 200,68 l 4,0 0,4 -4,0 z M 204,68 l 4,0 0,4 -4,0 z M 208,68 l 4,0 0,4 -4,0 z M 12,72 l 4,0 0,4 -4,0 z M 20,72 l 4,0 0,4 -4,0 z M 44,72 l 4,0 0,4 -4,0 z M 48,72 l 4,0 0,4 -4,0 z M 52,72 l 4,0 0,4 -4,0 z M 56,72 l 4,0 0,4 -4,0 z M 64,72 l 4,0 0,4 -4,0 z M 76,72 l 4,0 0,4 -4,0 z M 80,72 l 4,0 0,4 -4,0 z M 84,72 l 4,0 0,4 -4,0 z M 108,72 l 4,0 0,4 -4,0 z M 120,72 l 4,0 0,4 -4,0 z M 124,72 l 4,0 0,4 -4,0 z M 128,72 l 4,0 0,4 -4,0 z M 136,72 l 4,0 0,4 -4,0 z M 144,72 l 4,0 0,4 -4,0 z M 164,72 l 4,0 0,4 -4,0 z M 168,72 l 4,0 0,4 -4,0 z M 172,72 l 4,0 0,4 -4,0 z M 176,72 l 4,0 0,4 -4,0 z M 196,72 l 4,0 0,4 -4,0 z M 200,72 l 4,0 0,4 -4,0 z M 208,72 l 4,0 0,4 -4,0 z M 4,76 l 4,0 0,4 -4,0 z M 24,76 l 4,0 0,4 -4,0 z M 28,76 l 4,0 0,4 -4,0 z M 32,76 l 4,0 0,4 -4,0 z M 44,76 l 4,0 0,4 -4,0 z M 48,76 l 4,0 0,4 -4,0 z M 52,76 l 4,0 0,4 -4,0 z M 60,76 l 4,0 0,4 -4,0 z M 84,76 l 4,0 0,4 -4,0 z M 88,76 l 4,0 0,4 -4,0 z M 92,76 l 4,0 0,4 -4,0 z M 100,76 l 4,0 0,4 -4,0 z M 116,76 l 4,0 0,4 -4,0 z M 128,76 l 4,0 0,4 -4,0 z M 136,76 l 4,0 0,4 -4,0 z M 144,76 l 4,0 0,4 -4,0 z M 148,76 l 4,0 0,4 -4,0 z M 152,76 l 4,0 0,4 -4,0 z M 156,76 l 4,0 0,4 -4,0 z M 172,76 l 4,0 0,4 -4,0 z M 180,76 l 4,0 0,4 -4,0 z M 184,76 l 4,0 0,4 -4,0 z M 196,76 l 4,0 0,4 -4,0 z M 208,76 l 4,0 0,4 -4,0 z M 4,80 l 4,0 0,4 -4,0 z M 8,80 l 4,0 0,4 -4,0 z M 16,80 l 4,0 0,4 -4,0 z M 20,80 l 4,0 0,4 -4,0 z M 24,80 l 4,0 0,4 -4,0 z M 40,80 l 4,0 0,4 -4,0 z M 60,80 l 4,0 0,4 -4,0 z M 64,80 l 4,0 0,4 -4,0 z M 72,80 l 4,0 0,4 -4,0 z M 80,80 l 4,0 0,4 -4,0 z M 84,80 l 4,0 0,4 -4,0 z M 88,80 l 4,0 0,4 -4,0 z M 92,80 l 4,0 0,4 -4,0 z M 96,80 l 4,0 0,4 -4,0 z M 120,80 l 4,0 0,4 -4,0 z M 140,80 l 4,0 0,4 -4,0 z M 144,80 l 4,0 0,4 -4,0 z M 148,80 l 4,0 0,4 -4,0 z M 156,80 l 4,0 0,4 -4,0 z M 172,80 l 4,0 0,4 -4,0 z M 180,80 l 4,0 0,4 -4,0 z M 184,80 l 4,0 0,4 -4,0 z M 188,80 l 4,0 0,4 -4,0 z M 192,80 l 4,0 0,4 -4,0 z M 196,80 l 4,0 0,4 -4,0 z M 204,80 l 4,0 0,4 -4,0 z M 4,84 l 4,0 0,4 -4,0 z M 8,84 l 4,0 0,4 -4,0 z M 12,84 l 4,0 0,4 -4,0 z M 16,84 l 4,0 0,4 -4,0 z M 28,84 l 4,0 0,4 -4,0 z M 36,84 l 4,0 0,4 -4,0 z M 44,84 l 4,0 0,4 -4,0 z M 48,84 l 4,0 0,4 -4,0 z M 52,84 l 4,0 0,4 -4,0 z M 56,84 l 4,0 0,4 -4,0 z M 72,84 l 4,0 0,4 -4,0 z M 80,84 l 4,0 0,4 -4,0 z M 88,84 l 4,0 0,4 -4,0 z M 92,84 l 4,0 0,4 -4,0 z M 104,84 l 4,0 0,4 -4,0 z M 128,84 l 4,0 0,4 -4,0 z M 132,84 l 4,0 0,4 -4,0 z M 136,84 l 4,0 0,4 -4,0 z M 140,84 l 4,0 0,4 -4,0 z M 164,84 l 4,0 0,4 -4,0 z M 192,84 l 4,0 0,4 -4,0 z M 196,84 l 4,0 0,4 -4,0 z M 200,84 l 4,0 0,4 -4,0 z M 4,88 l 4,0 0,4 -4,0 z M 8,88 l 4,0 0,4 -4,0 z M 20,88 l 4,0 0,4 -4,0 z M 24,88 l 4,0 0,4 -4,0 z M 56,88 l 4,0 0,4 -4,0 z M 72,88 l 4,0 0,4 -4,0 z M 76,88 l 4,0 0,4 -4,0 z M 84,88 l 4,0 0,4 -4,0 z M 88,88 l 4,0 0,4 -4,0 z M 104,88 l 4,0 0,4 -4,0 z M 108,88 l 4,0 0,4 -4,0 z M 112,88 l 4,0 0,4 -4,0 z M 132,88 l 4,0 0,4 -4,0 z M 140,88 l 4,0 0,4 -4,0 z M 144,88 l 4,0 0,4 -4,0 z M 164,88 l 4,0 0,4 -4,0 z M 180,88 l 4,0 0,4 -4,0 z M 184,88 l 4,0 0,4 -4,0 z M 192,88 l 4,0 0,4 -4,0 z M 204,88 l 4,0 0,4 -4,0 z M 208,88 l 4,0 0,4 -4,0 z M 8,92 l 4,0 0,4 -4,0 z M 16,92 l 4,0 0,4 -4,0 z M 24,92 l 4,0 0,4 -4,0 z M 28,92 l 4,0 0,4 -4,0 z M 44,92 l 4,0 0,4 -4,0 z M 52,92 l 4,0 0,4 -4,0 z M 56,92 l 4,0 0,4 -4,0 z M 60,92 l 4,0 0,4 -4,0 z M 64,92 l 4,0 0,4 -4,0 z M 68,92 l 4,0 0,4 -4,0 z M 76,92 l 4,0 0,4 -4,0 z M 84,92 l 4,0 0,4 -4,0 z M 88,92 l 4,0 0,4 -4,0 z M 96,92 l 4,0 0,4 -4,0 z M 100,92 l 4,0 0,4 -4,0 z M 108,92 l 4,0 0,4 -4,0 z M 120,92 l 4,0 0,4 -4,0 z M 124,92 l 4,0 0,4 -4,0 z M 128,92 l 4,0 0,4 -4,0 z M 132,92 l 4,0 0,4 -4,0 z M 136,92 l 4,0 0,4 -4,0 z M 160,92 l 4,0 0,4 -4,0 z M 164,92 l 4,0 0,4 -4,0 z M 168,92 l 4,0 0,4 -4,0 z M 172,92 l 4,0 0,4 -4,0 z M 200,92 l 4,0 0,4 -4,0 z M 208,92 l 4,0 0,4 -4,0 z M 4,96 l 4,0 0,4 -4,0 z M 16,96 l 4,0 0,4 -4,0 z M 44,96 l 4,0 0,4 -4,0 z M 48,96 l 4,0 0,4 -4,0 z M 60,96 l 4,0 0,4 -4,0 z M 64,96 l 4,0 0,4 -4,0 z M 68,96 l 4,0 0,4 -4,0 z M 72,96 l 4,0 0,4 -4,0 z M 76,96 l 4,0 0,4 -4,0 z M 92,96 l 4,0 0,4 -4,0 z M 104,96 l 4,0 0,4 -4,0 z M 112,96 l 4,0 0,4 -4,0 z M 116,96 l 4,0 0,4 -4,0 z M 120,96 l 4,0 0,4 -4,0 z M 124,96 l 4,0 0,4 -4,0 z M 136,96 l 4,0 0,4 -4,0 z M 140,96 l 4,0 0,4 -4,0 z M 144,96 l 4,0 0,4 -4,0 z M 148,96 l 4,0 0,4 -4,0 z M 156,96 l 4,0 0,4 -4,0 z M 160,96 l 4,0 0,4 -4,0 z M 164,96 l 4,0 0,4 -4,0 z M 168,96 l 4,0 0,4 -4,0 z M 176,96 l 4,0 0,4 -4,0 z M 180,96 l 4,0 0,4 -4,0 z M 184,96 l 4,0 0,4 -4,0 z M 200,96 l 4,0 0,4 -4,0 z M 204,96 l 4,0 0,4 -4,0 z M 212,96 l 4,0 0,4 -4,0 z M 8,100 l 4,0 0,4 -4,0 z M 20,100 l 4,0 0,4 -4,0 z M 24,100 l 4,0 0,4 -4,0 z M 28,100 l 4,0 0,4 -4,0 z M 32,100 l 4,0 0,4 -4,0 z M 36,100 l 4,0 0,4 -4,0 z M 44,100 l 4,0 0,4 -4,0 z M 52,100 l 4,0 0,4 -4,0 z M 56,100 l 4,0 0,4 -4,0 z M 60,100 l 4,0 0,4 -4,0 z M 64,100 l 4,0 0,4 -4,0 z M 76,100 l 4,0 0,4 -4,0 z M 88,100 l 4,0 0,4 -4,0 z M 92,100 l 4,0 0,4 -4,0 z M 100,100 l 4,0 0,4 -4,0 z M 104,100 l 4,0 0,4 -4,0 z M 108,100 l 4,0 0,4 -4,0 z M 112,100 l 4,0 0,4 -4,0 z M 116,100 l 4,0 0,4 -4,0 z M 128,100 l 4,0 0,4 -4,0 z M 136,100 l 4,0 0,4 -4,0 z M 140,100 l 4,0 0,4 -4,0 z M 144,100 l 4,0 0,4 -4,0 z M 148,100 l 4,0 0,4 -4,0 z M 156,100 l 4,0 0,4 -4,0 z M 168,100 l 4,0 0,4 -4,0 z M 172,100 l 4,0 0,4 -4,0 z M 180,100 l 4,0 0,4 -4,0 z M 184,100 l 4,0 0,4 -4,0 z M 188,100 l 4,0 0,4 -4,0 z M 192,100 l 4,0 0,4 -4,0 z M 196,100 l 4,0 0,4 -4,0 z M 200,100 l 4,0 0,4 -4,0 z M 208,100 l 4,0 0,4 -4,0 z M 212,100 l 4,0 0,4 -4,0 z M 4,104 l 4,0 0,4 -4,0 z M 8,104 l 4,0 0,4 -4,0 z M 20,104 l 4,0 0,4 -4,0 z M 36,104 l 4,0 0,4 -4,0 z M 40,104 l 4,0 0,4 -4,0 z M 44,104 l 4,0 0,4 -4,0 z M 48,104 l 4,0 0,4 -4,0 z M 52,104 l 4,0 0,4 -4,0 z M 68,104 l 4,0 0,4 -4,0 z M 72,104 l 4,0 0,4 -4,0 z M 76,104 l 4,0 0,4 -4,0 z M 88,104 l 4,0 0,4 -4,0 z M 92,104 l 4,0 0,4 -4,0 z M 96,104 l 4,0 0,4 -4,0 z M 100,104 l 4,0 0,4 -4,0 z M 116,104 l 4,0 0,4 -4,0 z M 120,104 l 4,0 0,4 -4,0 z M 128,104 l 4,0 0,4 -4,0 z M 148,104 l 4,0 0,4 -4,0 z M 168,104 l 4,0 0,4 -4,0 z M 172,104 l 4,0 0,4 -4,0 z M 180,104 l 4,0 0,4 -4,0 z M 196,104 l 4,0 0,4 -4,0 z M 208,104 l 4,0 0,4 -4,0 z M 8,108 l 4,0 0,4 -4,0 z M 20,108 l 4,0 0,4 -4,0 z M 28,108 l 4,0 0,4 -4,0 z M 36,108 l 4,0 0,4 -4,0 z M 48,108 l 4,0 0,4 -4,0 z M 52,108 l 4,0 0,4 -4,0 z M 60,108 l 4,0 0,4 -4,0 z M 64,108 l 4,0 0,4 -4,0 z M 68,108 l 4,0 0,4 -4,0 z M 88,108 l 4,0 0,4 -4,0 z M 92,108 l 4,0 0,4 -4,0 z M 100,108 l 4,0 0,4 -4,0 z M 108,108 l 4,0 0,4 -4,0 z M 116,108 l 4,0 0,4 -4,0 z M 124,108 l 4,0 0,4 -4,0 z M 128,108 l 4,0 0,4 -4,0 z M 132,108 l 4,0 0,4 -4,0 z M 148,108 l 4,0 0,4 -4,0 z M 152,108 l 4,0 0,4 -4,0 z M 156,108 l 4,0 0,4 -4,0 z M 160,108 l 4,0 0,4 -4,0 z M 164,108 l 4,0 0,4 -4,0 z M 180,108 l 4,0 0,4 -4,0 z M 188,108 l 4,0 0,4 -4,0 z M 196,108 l 4,0 0,4 -4,0 z M 200,108 l 4,0 0,4 -4,0 z M 204,108 l 4,0 0,4 -4,0 z M 212,108 l 4,0 0,4 -4,0 z M 4,112 l 4,0 0,4 -4,0 z M 8,112 l 4,0 0,4 -4,0 z M 12,112 l 4,0 0,4 -4,0 z M 20,112 l 4,0 0,4 -4,0 z M 36,112 l 4,0 0,4 -4,0 z M 44,112 l 4,0 0,4 -4,0 z M 48,112 l 4,0 0,4 -4,0 z M 56,112 l 4,0 0,4 -4,0 z M 68,112 l 4,0 0,4 -4,0 z M 72,112 l 4,0 0,4 -4,0 z M 88,112 l 4,0 0,4 -4,0 z M 92,112 l 4,0 0,4 -4,0 z M 100,112 l 4,0 0,4 -4,0 z M 116,112 l 4,0 0,4 -4,0 z M 120,112 l 4,0 0,4 -4,0 z M 124,112 l 4,0 0,4 -4,0 z M 140,112 l 4,0 0,4 -4,0 z M 144,112 l 4,0 0,4 -4,0 z M 148,112 l 4,0 0,4 -4,0 z M 152,112 l 4,0 0,4 -4,0 z M 156,112 l 4,0 0,4 -4,0 z M 172,112 l 4,0 0,4 -4,0 z M 180,112 l 4,0 0,4 -4,0 z M 196,112 l 4,0 0,4 -4,0 z M 8,116 l 4,0 0,4 -4,0 z M 12,116 l 4,0 0,4 -4,0 z M 20,116 l 4,0 0,4 -4,0 z M 24,116 l 4,0 0,4 -4,0 z M 28,116 l 4,0 0,4 -4,0 z M 32,116 l 4,0 0,4 -4,0 z M 36,116 l 4,0 0,4 -4,0 z M 40,116 l 4,0 0,4 -4,0 z M 44,116 l 4,0 0,4 -4,0 z M 48,116 l 4,0 0,4 -4,0 z M 56,116 l 4,0 0,4 -4,0 z M 60,116 l 4,0 0,4 -4,0 z M 80,116 l 4,0 0,4 -4,0 z M 84,116 l 4,0 0,4 -4,0 z M 96,116 l 4,0 0,4 -4,0 z M 100,116 l 4,0 0,4 -4,0 z M 104,116 l 4,0 0,4 -4,0 z M 108,116 l 4,0 0,4 -4,0 z M 112,116 l 4,0 0,4 -4,0 z M 116,116 l 4,0 0,4 -4,0 z M 124,116 l 4,0 0,4 -4,0 z M 136,116 l 4,0 0,4 -4,0 z M 140,116 l 4,0 0,4 -4,0 z M 144,116 l 4,0 0,4 -4,0 z M 148,116 l 4,0 0,4 -4,0 z M 160,116 l 4,0 0,4 -4,0 z M 164,116 l 4,0 0,4 -4,0 z M 172,116 l 4,0 0,4 -4,0 z M 180,116 l 4,0 0,4 -4,0 z M 184,116 l 4,0 0,4 -4,0 z M 188,116 l 4,0 0,4 -4,0 z M 192,116 l 4,0 0,4 -4,0 z M 196,116 l 4,0 0,4 -4,0 z M 16,120 l 4,0 0,4 -4,0 z M 36,120 l 4,0 0,4 -4,0 z M 40,120 l 4,0 0,4 -4,0 z M 44,120 l 4,0 0,4 -4,0 z M 52,120 l 4,0 0,4 -4,0 z M 56,120 l 4,0 0,4 -4,0 z M 72,120 l 4,0 0,4 -4,0 z M 76,120 l 4,0 0,4 -4,0 z M 84,120 l 4,0 0,4 -4,0 z M 92,120 l 4,0 0,4 -4,0 z M 104,120 l 4,0 0,4 -4,0 z M 112,120 l 4,0 0,4 -4,0 z M 124,120 l 4,0 0,4 -4,0 z M 140,120 l 4,0 0,4 -4,0 z M 148,120 l 4,0 0,4 -4,0 z M 152,120 l 4,0 0,4 -4,0 z M 156,120 l 4,0 0,4 -4,0 z M 160,120 l 4,0 0,4 -4,0 z M 168,120 l 4,0 0,4 -4,0 z M 172,120 l 4,0 0,4 -4,0 z M 184,120 l 4,0 0,4 -4,0 z M 188,120 l 4,0 0,4 -4,0 z M 192,120 l 4,0 0,4 -4,0 z M 196,120 l 4,0 0,4 -4,0 z M 200,120 l 4,0 0,4 -4,0 z M 204,120 l 4,0 0,4 -4,0 z M 4,124 l 4,0 0,4 -4,0 z M 12,124 l 4,0 0,4 -4,0 z M 16,124 l 4,0 0,4 -4,0 z M 20,124 l 4,0 0,4 -4,0 z M 24,124 l 4,0 0,4 -4,0 z M 28,124 l 4,0 0,4 -4,0 z M 36,124 l 4,0 0,4 -4,0 z M 44,124 l 4,0 0,4 -4,0 z M 48,124 l 4,0 0,4 -4,0 z M 52,124 l 4,0 0,4 -4,0 z M 68,124 l 4,0 0,4 -4,0 z M 72,124 l 4,0 0,4 -4,0 z M 84,124 l 4,0 0,4 -4,0 z M 92,124 l 4,0 0,4 -4,0 z M 108,124 l 4,0 0,4 -4,0 z M 120,124 l 4,0 0,4 -4,0 z M 124,124 l 4,0 0,4 -4,0 z M 128,124 l 4,0 0,4 -4,0 z M 132,124 l 4,0 0,4 -4,0 z M 136,124 l 4,0 0,4 -4,0 z M 152,124 l 4,0 0,4 -4,0 z M 168,124 l 4,0 0,4 -4,0 z M 172,124 l 4,0 0,4 -4,0 z M 176,124 l 4,0 0,4 -4,0 z M 180,124 l 4,0 0,4 -4,0 z M 184,124 l 4,0 0,4 -4,0 z M 188,124 l 4,0 0,4 -4,0 z M 192,124 l 4,0 0,4 -4,0 z M 200,124 l 4,0 0,4 -4,0 z M 208,124 l 4,0 0,4 -4,0 z M 12,128 l 4,0 0,4 -4,0 z M 16,128 l 4,0 0,4 -4,0 z M 20,128 l 4,0 0,4 -4,0 z M 24,128 l 4,0 0,4 -4,0 z M 32,128 l 4,0 0,4 -4,0 z M 56,128 l 4,0 0,4 -4,0 z M 64,128 l 4,0 0,4 -4,0 z M 68,128 l 4,0 0,4 -4,0 z M 80,128 l 4,0 0,4 -4,0 z M 112,128 l 4,0 0,4 -4,0 z M 156,128 l 4,0 0,4 -4,0 z M 160,128 l 4,0 0,4 -4,0 z M 164,128 l 4,0 0,4 -4,0 z M 180,128 l 4,0 0,4 -4,0 z M 184,128 l 4,0 0,4 -4,0 z M 192,128 l 4,0 0,4 -4,0 z M 196,128 l 4,0 0,4 -4,0 z M 208,128 l 4,0 0,4 -4,0 z M 4,132 l 4,0 0,4 -4,0 z M 16,132 l 4,0 0,4 -4,0 z M 20,132 l 4,0 0,4 -4,0 z M 28,132 l 4,0 0,4 -4,0 z M 48,132 l 4,0 0,4 -4,0 z M 52,132 l 4,0 0,4 -4,0 z M 72,132 l 4,0 0,4 -4,0 z M 80,132 l 4,0 0,4 -4,0 z M 96,132 l 4,0 0,4 -4,0 z M 112,132 l 4,0 0,4 -4,0 z M 128,132 l 4,0 0,4 -4,0 z M 136,132 l 4,0 0,4 -4,0 z M 148,132 l 4,0 0,4 -4,0 z M 152,132 l 4,0 0,4 -4,0 z M 156,132 l 4,0 0,4 -4,0 z M 168,132 l 4,0 0,4 -4,0 z M 172,132 l 4,0 0,4 -4,0 z M 176,132 l 4,0 0,4 -4,0 z M 180,132 l 4,0 0,4 -4,0 z M 188,132 l 4,0 0,4 -4,0 z M 192,132 l 4,0 0,4 -4,0 z M 196,132 l 4,0 0,4 -4,0 z M 200,132 l 4,0 0,4 -4,0 z M 204,132 l 4,0 0,4 -4,0 z M 212,132 l 4,0 0,4 -4,0 z M 4,136 l 4,0 0,4 -4,0 z M 12,136 l 4,0 0,4 -4,0 z M 24,136 l 4,0 0,4 -4,0 z M 32,136 l 4,0 0,4 -4,0 z M 36,136 l 4,0 0,4 -4,0 z M 40,136 l 4,0 0,4 -4,0 z M 48,136 l 4,0 0,4 -4,0 z M 56,136 l 4,0 0,4 -4,0 z M 64,136 l 4,0 0,4 -4,0 z M 76,136 l 4,0 0,4 -4,0 z M 80,136 l 4,0 0,4 -4,0 z M 92,136 l 4,0 0,4 -4,0 z M 100,136 l 4,0 0,4 -4,0 z M 104,136 l 4,0 0,4 -4,0 z M 112,136 l 4,0 0,4 -4,0 z M 116,136 l 4,0 0,4 -4,0 z M 128,136 l 4,0 0,4 -4,0 z M 132,136 l 4,0 0,4 -4,0 z M 144,136 l 4,0 0,4 -4,0 z M 148,136 l 4,0 0,4 -4,0 z M 152,136 l 4,0 0,4 -4,0 z M 164,136 l 4,0 0,4 -4,0 z M 168,136 l 4,0 0,4 -4,0 z M 172,136 l 4,0 0,4 -4,0 z M 176,136 l 4,0 0,4 -4,0 z M 184,136 l 4,0 0,4 -4,0 z M 188,136 l 4,0 0,4 -4,0 z M 200,136 l 4,0 0,4 -4,0 z M 204,136 l 4,0 0,4 -4,0 z M 8,140 l 4,0 0,4 -4,0 z M 28,140 l 4,0 0,4 -4,0 z M 48,140 l 4,0 0,4 -4,0 z M 60,140 l 4,0 0,4 -4,0 z M 72,140 l 4,0 0,4 -4,0 z M 96,140 l 4,0 0,4 -4,0 z M 100,140 l 4,0 0,4 -4,0 z M 104,140 l 4,0 0,4 -4,0 z M 108,140 l 4,0 0,4 -4,0 z M 124,140 l 4,0 0,4 -4,0 z M 128,140 l 4,0 0,4 -4,0 z M 132,140 l 4,0 0,4 -4,0 z M 136,140 l 4,0 0,4 -4,0 z M 176,140 l 4,0 0,4 -4,0 z M 192,140 l 4,0 0,4 -4,0 z M 204,140 l 4,0 0,4 -4,0 z M 212,140 l 4,0 0,4 -4,0 z M 4,144 l 4,0 0,4 -4,0 z M 12,144 l 4,0 0,4 -4,0 z M 20,144 l 4,0 0,4 -4,0 z M 24,144 l 4,0 0,4 -4,0 z M 40,144 l 4,0 0,4 -4,0 z M 44,144 l 4,0 0,4 -4,0 z M 48,144 l 4,0 0,4 -4,0 z M 56,144 l 4,0 0,4 -4,0 z M 60,144 l 4,0 0,4 -4,0 z M 64,144 l 4,0 0,4 -4,0 z M 72,144 l 4,0 0,4 -4,0 z M 76,144 l 4,0 0,4 -4,0 z M 84,144 l 4,0 0,4 -4,0 z M 88,144 l 4,0 0,4 -4,0 z M 92,144 l 4,0 0,4 -4,0 z M 96,144 l 4,0 0,4 -4,0 z M 100,144 l 4,0 0,4 -4,0 z M 116,144 l 4,0 0,4 -4,0 z M 140,144 l 4,0 0,4 -4,0 z M 144,144 l 4,0 0,4 -4,0 z M 148,144 l 4,0 0,4 -4,0 z M 172,144 l 4,0 0,4 -4,0 z M 176,144 l 4,0 0,4 -4,0 z M 204,144 l 4,0 0,4 -4,0 z M 212,144 l 4,0 0,4 -4,0 z M 4,148 l 4,0 0,4 -4,0 z M 8,148 l 4,0 0,4 -4,0 z M 12,148 l 4,0 0,4 -4,0 z M 24,148 l 4,0 0,4 -4,0 z M 28,148 l 4,0 0,4 -4,0 z M 36,148 l 4,0 0,4 -4,0 z M 44,148 l 4,0 0,4 -4,0 z M 56,148 l 4,0 0,4 -4,0 z M 60,148 l 4,0 0,4 -4,0 z M 76,148 l 4,0 0,4 -4,0 z M 84,148 l 4,0 0,4 -4,0 z M 104,148 l 4,0 0,4 -4,0 z M 108,148 l 4,0 0,4 -4,0 z M 112,148 l 4,0 0,4 -4,0 z M 116,148 l 4,0 0,4 -4,0 z M 136,148 l 4,0 0,4 -4,0 z M 164,148 l 4,0 0,4 -4,0 z M 168,148 l 4,0 0,4 -4,0 z M 172,148 l 4,0 0,4 -4,0 z M 192,148 l 4,0 0,4 -4,0 z M 196,148 l 4,0 0,4 -4,0 z M 200,148 l 4,0 0,4 -4,0 z M 212,148 l 4,0 0,4 -4,0 z M 12,152 l 4,0 0,4 -4,0 z M 32,152 l 4,0 0,4 -4,0 z M 40,152 l 4,0 0,4 -4,0 z M 48,152 l 4,0 0,4 -4,0 z M 56,152 l 4,0 0,4 -4,0 z M 64,152 l 4,0 0,4 -4,0 z M 72,152 l 4,0 0,4 -4,0 z M 76,152 l 4,0 0,4 -4,0 z M 80,152 l 4,0 0,4 -4,0 z M 84,152 l 4,0 0,4 -4,0 z M 88,152 l 4,0 0,4 -4,0 z M 100,152 l 4,0 0,4 -4,0 z M 104,152 l 4,0 0,4 -4,0 z M 112,152 l 4,0 0,4 -4,0 z M 120,152 l 4,0 0,4 -4,0 z M 124,152 l 4,0 0,4 -4,0 z M 148,152 l 4,0 0,4 -4,0 z M 152,152 l 4,0 0,4 -4,0 z M 160,152 l 4,0 0,4 -4,0 z M 164,152 l 4,0 0,4 -4,0 z M 172,152 l 4,0 0,4 -4,0 z M 180,152 l 4,0 0,4 -4,0 z M 184,152 l 4,0 0,4 -4,0 z M 188,152 l 4,0 0,4 -4,0 z M 196,152 l 4,0 0,4 -4,0 z M 200,152 l 4,0 0,4 -4,0 z M 4,156 l 4,0 0,4 -4,0 z M 12,156 l 4,0 0,4 -4,0 z M 24,156 l 4,0 0,4 -4,0 z M 28,156 l 4,0 0,4 -4,0 z M 44,156 l 4,0 0,4 -4,0 z M 48,156 l 4,0 0,4 -4,0 z M 52,156 l 4,0 0,4 -4,0 z M 56,156 l 4,0 0,4 -4,0 z M 60,156 l 4,0 0,4 -4,0 z M 64,156 l 4,0 0,4 -4,0 z M 76,156 l 4,0 0,4 -4,0 z M 80,156 l 4,0 0,4 -4,0 z M 92,156 l 4,0 0,4 -4,0 z M 96,156 l 4,0 0,4 -4,0 z M 100,156 l 4,0 0,4 -4,0 z M 104,156 l 4,0 0,4 -4,0 z M 112,156 l 4,0 0,4 -4,0 z M 120,156 l 4,0 0,4 -4,0 z M 124,156 l 4,0 0,4 -4,0 z M 128,156 l 4,0 0,4 -4,0 z M 132,156 l 4,0 0,4 -4,0 z M 136,156 l 4,0 0,4 -4,0 z M 144,156 l 4,0 0,4 -4,0 z M 152,156 l 4,0 0,4 -4,0 z M 164,156 l 4,0 0,4 -4,0 z M 168,156 l 4,0 0,4 -4,0 z M 172,156 l 4,0 0,4 -4,0 z M 180,156 l 4,0 0,4 -4,0 z M 188,156 l 4,0 0,4 -4,0 z M 196,156 l 4,0 0,4 -4,0 z M 200,156 l 4,0 0,4 -4,0 z M 208,156 l 4,0 0,4 -4,0 z M 212,156 l 4,0 0,4 -4,0 z M 8,160 l 4,0 0,4 -4,0 z M 20,160 l 4,0 0,4 -4,0 z M 40,160 l 4,0 0,4 -4,0 z M 52,160 l 4,0 0,4 -4,0 z M 60,160 l 4,0 0,4 -4,0 z M 64,160 l 4,0 0,4 -4,0 z M 72,160 l 4,0 0,4 -4,0 z M 76,160 l 4,0 0,4 -4,0 z M 84,160 l 4,0 0,4 -4,0 z M 92,160 l 4,0 0,4 -4,0 z M 96,160 l 4,0 0,4 -4,0 z M 112,160 l 4,0 0,4 -4,0 z M 116,160 l 4,0 0,4 -4,0 z M 144,160 l 4,0 0,4 -4,0 z M 152,160 l 4,0 0,4 -4,0 z M 156,160 l 4,0 0,4 -4,0 z M 168,160 l 4,0 0,4 -4,0 z M 180,160 l 4,0 0,4 -4,0 z M 184,160 l 4,0 0,4 -4,0 z M 188,160 l 4,0 0,4 -4,0 z M 212,160 l 4,0 0,4 -4,0 z M 4,164 l 4,0 0,4 -4,0 z M 8,164 l 4,0 0,4 -4,0 z M 28,164 l 4,0 0,4 -4,0 z M 32,164 l 4,0 0,4 -4,0 z M 44,164 l 4,0 0,4 -4,0 z M 56,164 l 4,0 0,4 -4,0 z M 60,164 l 4,0 0,4 -4,0 z M 64,164 l 4,0 0,4 -4,0 z M 76,164 l 4,0 0,4 -4,0 z M 88,164 l 4,0 0,4 -4,0 z M 96,164 l 4,0 0,4 -4,0 z M 100,164 l 4,0 0,4 -4,0 z M 108,164 l 4,0 0,4 -4,0 z M 112,164 l 4,0 0,4 -4,0 z M 124,164 l 4,0 0,4 -4,0 z M 128,164 l 4,0 0,4 -4,0 z M 144,164 l 4,0 0,4 -4,0 z M 148,164 l 4,0 0,4 -4,0 z M 152,164 l 4,0 0,4 -4,0 z M 168,164 l 4,0 0,4 -4,0 z M 176,164 l 4,0 0,4 -4,0 z M 180,164 l 4,0 0,4 -4,0 z M 188,164 l 4,0 0,4 -4,0 z M 196,164 l 4,0 0,4 -4,0 z M 208,164 l 4,0 0,4 -4,0 z M 212,164 l 4,0 0,4 -4,0 z M 8,168 l 4,0 0,4 -4,0 z M 16,168 l 4,0 0,4 -4,0 z M 20,168 l 4,0 0,4 -4,0 z M 24,168 l 4,0 0,4 -4,0 z M 32,168 l 4,0 0,4 -4,0 z M 52,168 l 4,0 0,4 -4,0 z M 68,168 l 4,0 0,4 -4,0 z M 72,168 l 4,0 0,4 -4,0 z M 76,168 l 4,0 0,4 -4,0 z M 92,168 l 4,0 0,4 -4,0 z M 100,168 l 4,0 0,4 -4,0 z M 116,168 l 4,0 0,4 -4,0 z M 148,168 l 4,0 0,4 -4,0 z M 152,168 l 4,0 0,4 -4,0 z M 160,168 l 4,0 0,4 -4,0 z M 168,168 l 4,0 0,4 -4,0 z M 172,168 l 4,0 0,4 -4,0 z M 192,168 l 4,0 0,4 -4,0 z M 200,168 l 4,0 0,4 -4,0 z M 204,168 l 4,0 0,4 -4,0 z M 4,172 l 4,0 0,4 -4,0 z M 8,172 l 4,0 0,4 -4,0 z M 16,172 l 4,0 0,4 -4,0 z M 20,172 l 4,0 0,4 -4,0 z M 24,172 l 4,0 0,4 -4,0 z M 28,172 l 4,0 0,4 -4,0 z M 32,172 l 4,0 0,4 -4,0 z M 36,172 l 4,0 0,4 -4,0 z M 40,172 l 4,0 0,4 -4,0 z M 56,172 l 4,0 0,4 -4,0 z M 64,172 l 4,0 0,4 -4,0 z M 68,172 l 4,0 0,4 -4,0 z M 88,172 l 4,0 0,4 -4,0 z M 96,172 l 4,0 0,4 -4,0 z M 100,172 l 4,0 0,4 -4,0 z M 104,172 l 4,0 0,4 -4,0 z M 108,172 l 4,0 0,4 -4,0 z M 112,172 l 4,0 0,4 -4,0 z M 120,172 l 4,0 0,4 -4,0 z M 124,172 l 4,0 0,4 -4,0 z M 132,172 l 4,0 0,4 -4,0 z M 136,172 l 4,0 0,4 -4,0 z M 144,172 l 4,0 0,4 -4,0 z M 148,172 l 4,0 0,4 -4,0 z M 156,172 l 4,0 0,4 -4,0 z M 160,172 l 4,0 0,4 -4,0 z M 176,172 l 4,0 0,4 -4,0 z M 180,172 l 4,0 0,4 -4,0 z M 188,172 l 4,0 0,4 -4,0 z M 192,172 l 4,0 0,4 -4,0 z M 196,172 l 4,0 0,4 -4,0 z M 200,172 l 4,0 0,4 -4,0 z M 208,172 l 4,0 0,4 -4,0 z M 212,172 l 4,0 0,4 -4,0 z M 8,176 l 4,0 0,4 -4,0 z M 12,176 l 4,0 0,4 -4,0 z M 32,176 l 4,0 0,4 -4,0 z M 36,176 l 4,0 0,4 -4,0 z M 68,176 l 4,0 0,4 -4,0 z M 76,176 l 4,0 0,4 -4,0 z M 88,176 l 4,0 0,4 -4,0 z M 96,176 l 4,0 0,4 -4,0 z M 100,176 l 4,0 0,4 -4,0 z M 108,176 l 4,0 0,4 -4,0 z M 140,176 l 4,0 0,4 -4,0 z M 144,176 l 4,0 0,4 -4,0 z M 148,176 l 4,0 0,4 -4,0 z M 160,176 l 4,0 0,4 -4,0 z M 168,176 l 4,0 0,4 -4,0 z M 172,176 l 4,0 0,4 -4,0 z M 192,176 l 4,0 0,4 -4,0 z M 200,176 l 4,0 0,4 -4,0 z M 204,176 l 4,0 0,4 -4,0 z M 16,180 l 4,0 0,4 -4,0 z M 28,180 l 4,0 0,4 -4,0 z M 40,180 l 4,0 0,4 -4,0 z M 44,180 l 4,0 0,4 -4,0 z M 72,180 l 4,0 0,4 -4,0 z M 76,180 l 4,0 0,4 -4,0 z M 88,180 l 4,0 0,4 -4,0 z M 92,180 l 4,0 0,4 -4,0 z M 96,180 l 4,0 0,4 -4,0 z M 100,180 l 4,0 0,4 -4,0 z M 104,180 l 4,0 0,4 -4,0 z M 108,180 l 4,0 0,4 -4,0 z M 112,180 l 4,0 0,4 -4,0 z M 116,180 l 4,0 0,4 -4,0 z M 120,180 l 4,0 0,4 -4,0 z M 128,180 l 4,0 0,4 -4,0 z M 164,180 l 4,0 0,4 -4,0 z M 172,180 l 4,0 0,4 -4,0 z M 180,180 l 4,0 0,4 -4,0 z M 184,180 l 4,0 0,4 -4,0 z M 188,180 l 4,0 0,4 -4,0 z M 192,180 l 4,0 0,4 -4,0 z M 196,180 l 4,0 0,4 -4,0 z M 200,180 l 4,0 0,4 -4,0 z M 36,184 l 4,0 0,4 -4,0 z M 40,184 l 4,0 0,4 -4,0 z M 60,184 l 4,0 0,4 -4,0 z M 64,184 l 4,0 0,4 -4,0 z M 72,184 l 4,0 0,4 -4,0 z M 76,184 l 4,0 0,4 -4,0 z M 80,184 l 4,0 0,4 -4,0 z M 96,184 l 4,0 0,4 -4,0 z M 100,184 l 4,0 0,4 -4,0 z M 116,184 l 4,0 0,4 -4,0 z M 120,184 l 4,0 0,4 -4,0 z M 128,184 l 4,0 0,4 -4,0 z M 136,184 l 4,0 0,4 -4,0 z M 148,184 l 4,0 0,4 -4,0 z M 156,184 l 4,0 0,4 -4,0 z M 160,184 l 4,0 0,4 -4,0 z M 164,184 l 4,0 0,4 -4,0 z M 180,184 l 4,0 0,4 -4,0 z M 196,184 l 4,0 0,4 -4,0 z M 208,184 l 4,0 0,4 -4,0 z M 4,188 l 4,0 0,4 -4,0 z M 8,188 l 4,0 0,4 -4,0 z M 12,188 l 4,0 0,4 -4,0 z M 16,188 l 4,0 0,4 -4,0 z M 20,188 l 4,0 0,4 -4,0 z M 24,188 l 4,0 0,4 -4,0 z M 28,188 l 4,0 0,4 -4,0 z M 36,188 l 4,0 0,4 -4,0 z M 48,188 l 4,0 0,4 -4,0 z M 52,188 l 4,0 0,4 -4,0 z M 56,188 l 4,0 0,4 -4,0 z M 60,188 l 4,0 0,4 -4,0 z M 72,188 l 4,0 0,4 -4,0 z M 80,188 l 4,0 0,4 -4,0 z M 84,188 l 4,0 0,4 -4,0 z M 88,188 l 4,0 0,4 -4,0 z M 92,188 l 4,0 0,4 -4,0 z M 100,188 l 4,0 0,4 -4,0 z M 108,188 l 4,0 0,4 -4,0 z M 116,188 l 4,0 0,4 -4,0 z M 120,188 l 4,0 0,4 -4,0 z M 124,188 l 4,0 0,4 -4,0 z M 128,188 l 4,0 0,4 -4,0 z M 132,188 l 4,0 0,4 -4,0 z M 136,188 l 4,0 0,4 -4,0 z M 148,188 l 4,0 0,4 -4,0 z M 164,188 l 4,0 0,4 -4,0 z M 172,188 l 4,0 0,4 -4,0 z M 180,188 l 4,0 0,4 -4,0 z M 188,188 l 4,0 0,4 -4,0 z M 196,188 l 4,0 0,4 -4,0 z M 208,188 l 4,0 0,4 -4,0 z M 212,188 l 4,0 0,4 -4,0 z M 4,192 l 4,0 0,4 -4,0 z M 28,192 l 4,0 0,4 -4,0 z M 40,192 l 4,0 0,4 -4,0 z M 52,192 l 4,0 0,4 -4,0 z M 60,192 l 4,0 0,4 -4,0 z M 68,192 l 4,0 0,4 -4,0 z M 92,192 l 4,0 0,4 -4,0 z M 96,192 l 4,0 0,4 -4,0 z M 100,192 l 4,0 0,4 -4,0 z M 116,192 l 4,0 0,4 -4,0 z M 120,192 l 4,0 0,4 -4,0 z M 140,192 l 4,0 0,4 -4,0 z M 156,192 l 4,0 0,4 -4,0 z M 160,192 l 4,0 0,4 -4,0 z M 164,192 l 4,0 0,4 -4,0 z M 168,192 l 4,0 0,4 -4,0 z M 172,192 l 4,0 0,4 -4,0 z M 180,192 l 4,0 0,4 -4,0 z M 196,192 l 4,0 0,4 -4,0 z M 200,192 l 4,0 0,4 -4,0 z M 208,192 l 4,0 0,4 -4,0 z M 4,196 l 4,0 0,4 -4,0 z M 12,196 l 4,0 0,4 -4,0 z M 16,196 l 4,0 0,4 -4,0 z M 20,196 l 4,0 0,4 -4,0 z M 28,196 l 4,0 0,4 -4,0 z M 36,196 l 4,0 0,4 -4,0 z M 52,196 l 4,0 0,4 -4,0 z M 72,196 l 4,0 0,4 -4,0 z M 84,196 l 4,0 0,4 -4,0 z M 88,196 l 4,0 0,4 -4,0 z M 92,196 l 4,0 0,4 -4,0 z M 96,196 l 4,0 0,4 -4,0 z M 100,196 l 4,0 0,4 -4,0 z M 104,196 l 4,0 0,4 -4,0 z M 108,196 l 4,0 0,4 -4,0 z M 112,196 l 4,0 0,4 -4,0 z M 116,196 l 4,0 0,4 -4,0 z M 120,196 l 4,0 0,4 -4,0 z M 128,196 l 4,0 0,4 -4,0 z M 136,196 l 4,0 0,4 -4,0 z M 144,196 l 4,0 0,4 -4,0 z M 148,196 l 4,0 0,4 -4,0 z M 152,196 l 4,0 0,4 -4,0 z M 160,196 l 4,0 0,4 -4,0 z M 172,196 l 4,0 0,4 -4,0 z M 180,196 l 4,0 0,4 -4,0 z M 184,196 l 4,0 0,4 -4,0 z M 188,196 l 4,0 0,4 -4,0 z M 192,196 l 4,0 0,4 -4,0 z M 196,196 l 4,0 0,4 -4,0 z M 212,196 l 4,0 0,4 -4,0 z M 4,200 l 4,0 0,4 -4,0 z M 12,200 l 4,0 0,4 -4,0 z M 16,200 l 4,0 0,4 -4,0 z M 20,200 l 4,0 0,4 -4,0 z M 28,200 l 4,0 0,4 -4,0 z M 36,200 l 4,0 0,4 -4,0 z M 44,200 l 4,0 0,4 -4,0 z M 48,200 l 4,0 0,4 -4,0 z M 60,200 l 4,0 0,4 -4,0 z M 64,200 l 4,0 0,4 -4,0 z M 76,200 l 4,0 0,4 -4,0 z M 84,200 l 4,0 0,4 -4,0 z M 88,200 l 4,0 0,4 -4,0 z M 92,200 l 4,0 0,4 -4,0 z M 100,200 l 4,0 0,4 -4,0 z M 108,200 l 4,0 0,4 -4,0 z M 112,200 l 4,0 0,4 -4,0 z M 116,200 l 4,0 0,4 -4,0 z M 124,200 l 4,0 0,4 -4,0 z M 128,200 l 4,0 0,4 -4,0 z M 132,200 l 4,0 0,4 -4,0 z M 136,200 l 4,0 0,4 -4,0 z M 144,200 l 4,0 0,4 -4,0 z M 152,200 l 4,0 0,4 -4,0 z M 168,200 l 4,0 0,4 -4,0 z M 172,200 l 4,0 0,4 -4,0 z M 176,200 l 4,0 0,4 -4,0 z M 184,200 l 4,0 0,4 -4,0 z M 196,200 l 4,0 0,4 -4,0 z M 200,200 l 4,0 0,4 -4,0 z M 204,200 l 4,0 0,4 -4,0 z M 208,200 l 4,0 0,4 -4,0 z M 4,204 l 4,0 0,4 -4,0 z M 12,204 l 4,0 0,4 -4,0 z M 16,204 l 4,0 0,4 -4,0 z M 20,204 l 4,0 0,4 -4,0 z M 28,204 l 4,0 0,4 -4,0 z M 36,204 l 4,0 0,4 -4,0 z M 40,204 l 4,0 0,4 -4,0 z M 44,204 l 4,0 0,4 -4,0 z M 48,204 l 4,0 0,4 -4,0 z M 52,204 l 4,0 0,4 -4,0 z M 60,204 l 4,0 0,4 -4,0 z M 84,204 l 4,0 0,4 -4,0 z M 104,204 l 4,0 0,4 -4,0 z M 112,204 l 4,0 0,4 -4,0 z M 124,204 l 4,0 0,4 -4,0 z M 132,204 l 4,0 0,4 -4,0 z M 140,204 l 4,0 0,4 -4,0 z M 144,204 l 4,0 0,4 -4,0 z M 156,204 l 4,0 0,4 -4,0 z M 160,204 l 4,0 0,4 -4,0 z M 164,204 l 4,0 0,4 -4,0 z M 168,204 l 4,0 0,4 -4,0 z M 176,204 l 4,0 0,4 -4,0 z M 184,204 l 4,0 0,4 -4,0 z M 188,204 l 4,0 0,4 -4,0 z M 200,204 l 4,0 0,4 -4,0 z M 208,204 l 4,0 0,4 -4,0 z M 4,208 l 4,0 0,4 -4,0 z M 28,208 l 4,0 0,4 -4,0 z M 36,208 l 4,0 0,4 -4,0 z M 48,208 l 4,0 0,4 -4,0 z M 56,208 l 4,0 0,4 -4,0 z M 60,208 l 4,0 0,4 -4,0 z M 64,208 l 4,0 0,4 -4,0 z M 80,208 l 4,0 0,4 -4,0 z M 88,208 l 4,0 0,4 -4,0 z M 92,208 l 4,0 0,4 -4,0 z M 96,208 l 4,0 0,4 -4,0 z M 100,208 l 4,0 0,4 -4,0 z M 108,208 l 4,0 0,4 -4,0 z M 120,208 l 4,0 0,4 -4,0 z M 136,208 l 4,0 0,4 -4,0 z M 140,208 l 4,0 0,4 -4,0 z M 144,208 l 4,0 0,4 -4,0 z M 148,208 l 4,0 0,4 -4,0 z M 152,208 l 4,0 0,4 -4,0 z M 156,208 l 4,0 0,4 -4,0 z M 160,208 l 4,0 0,4 -4,0 z M 168,208 l 4,0 0,4 -4,0 z M 180,208 l 4,0 0,4 -4,0 z M 184,208 l 4,0 0,4 -4,0 z M 200,208 l 4,0 0,4 -4,0 z M 204,208 l 4,0 0,4 -4,0 z M 208,208 l 4,0 0,4 -4,0 z M 212,208 l 4,0 0,4 -4,0 z M 4,212 l 4,0 0,4 -4,0 z M 8,212 l 4,0 0,4 -4,0 z M 12,212 l 4,0 0,4 -4,0 z M 16,212 l 4,0 0,4 -4,0 z M 20,212 l 4,0 0,4 -4,0 z M 24,212 l 4,0 0,4 -4,0 z M 28,212 l 4,0 0,4 -4,0 z M 36,212 l 4,0 0,4 -4,0 z M 48,212 l 4,0 0,4 -4,0 z M 56,212 l 4,0 0,4 -4,0 z M 72,212 l 4,0 0,4 -4,0 z M 88,212 l 4,0 0,4 -4,0 z M 92,212 l 4,0 0,4 -4,0 z M 108,212 l 4,0 0,4 -4,0 z M 112,212 l 4,0 0,4 -4,0 z M 120,212 l 4,0 0,4 -4,0 z M 124,212 l 4,0 0,4 -4,0 z M 128,212 l 4,0 0,4 -4,0 z M 140,212 l 4,0 0,4 -4,0 z M 144,212 l 4,0 0,4 -4,0 z M 156,212 l 4,0 0,4 -4,0 z M 160,212 l 4,0 0,4 -4,0 z M 164,212 l 4,0 0,4 -4,0 z M 180,212 l 4,0 0,4 -4,0 z M 196,212 l 4,0 0,4 -4,0 z M 200,212 l 4,0 0,4 -4,0 z M 208,212 l 4,0 0,4 -4,0 z " />
	</g>
</svg>
